<?xml version="1.0" encoding="UTF-8" standalone="no"?>

<svg
   width="1037.8021"
   height="401.62003"
   viewBox="0 0 274.58515 106.26197"
   version="1.1"
   id="svg1"
   xmlns:xlink="http://www.w3.org/1999/xlink"
   xmlns="http://www.w3.org/2000/svg"
   xmlns:svg="http://www.w3.org/2000/svg">
  <defs
     id="defs1">
    <linearGradient
       id="linearGradient20">
      <stop
         style="stop-color:#e90050;stop-opacity:1;"
         offset="0"
         id="stop19" />
      <stop
         style="stop-color:#e2d800;stop-opacity:1;"
         offset="1"
         id="stop20" />
    </linearGradient>
    <linearGradient
       xlink:href="#linearGradient20"
       id="linearGradient16"
       x1="97.253258"
       y1="177.49823"
       x2="142.31512"
       y2="108.25177"
       gradientUnits="userSpaceOnUse" />
    <linearGradient
       xlink:href="#linearGradient20"
       id="linearGradient3"
       gradientUnits="userSpaceOnUse"
       x1="97.253258"
       y1="177.49823"
       x2="142.31512"
       y2="108.25177"
       gradientTransform="translate(141.19425,4.6e-5)" />
    <filter
       style="color-interpolation-filters:sRGB"
       id="filter10"
       x="-0.018419512"
       y="-0.066501539"
       width="1.036839"
       height="1.1330031">
      <feGaussianBlur
         stdDeviation="1.9373789"
         id="feGaussianBlur10" />
    </filter>
    <filter
       style="color-interpolation-filters:sRGB"
       id="filter11"
       x="-0.018521754"
       y="-0.25155755"
       width="1.0370435"
       height="1.5031151">
      <feGaussianBlur
         stdDeviation="2.0325094"
         id="feGaussianBlur11" />
    </filter>
  </defs>
  <g
     id="layer1"
     transform="translate(-8.2644548,-7.9656692)">
    <rect
       style="display:none;fill:#ffffff;stroke-width:1;paint-order:fill markers stroke"
       id="rect11"
       width="291.04166"
       height="123.03125"
       x="0"
       y="0" />
    <g
       id="g10"
       transform="matrix(1.0491027,0,0,1.0491027,-66.13129,-100.33806)"
       style="fill:#000000;stroke-width:0.953195;filter:url(#filter10)">
      <path
         d="m 200.10314,112.21794 c 0.1065,-0.0295 0.31006,-0.49954 0.36174,0 0.0517,0.49954 0.97128,2.7265 1.62781,3.97909 0.65653,1.25259 0.49092,1.92925 0.49092,2.97139 0,1.04214 -0.1292,1.95769 -0.12919,2.60966 1e-5,0.65197 0.12919,0.94741 0.12919,1.83452 0,0.88711 -1.98093,5.57244 -2.9714,7.5706 -0.99047,1.99815 -0.25838,0.18087 0.23255,0 0.49092,-0.18087 3.05454,-1.81618 4.21163,-3.35897 1.15709,-1.54279 0.8952,-1.26399 1.49862,-1.73116 0.60342,-0.46717 1.3446,-1.11093 1.73116,-1.60197 0.38656,-0.49104 0.91295,-1.52446 1.36943,-1.86036 0.45647,-0.3359 0.30451,-0.0192 0.49092,0 0.18641,0.0192 0.44786,0.3273 0.62012,0.1292 0.17225,-0.19809 0.74069,-0.93879 0.85266,-1.11105 0.11196,-0.17226 0,-0.37035 0,-0.74931 0,-0.37896 0.84924,-1.30912 1.36943,-1.73116 0.52019,-0.42204 1.03451,-0.9942 1.62781,-1.757 0.5933,-0.7628 0.36244,-1.4795 1.83451,-1.93787 1.47207,-0.45837 4.3236,-0.25838 5.58106,-0.25838 1.25746,0 1.74717,1.17378 2.24793,1.34359 0.50076,0.16981 0.20674,-0.14834 1.26252,-0.43316 1.05578,-0.28482 -1.1943,1.41595 0.0811,1.28582 1.27536,-0.13013 2.69579,-1.34359 2.84221,-1.34359 0.14641,0 0.0257,-0.10353 0.12919,0 0.10353,0.10353 0.1378,0.74931 0,0.74931 -0.13781,0 -0.92627,0.85724 -2.37712,2.35128 -1.45085,1.49404 -1.80633,2.23532 -2.58382,3.22978 -0.77749,0.99446 -3.11014,1.78523 -3.82406,1.96371 -0.71392,0.17848 -0.99908,1.59335 -1.36943,2.24792 -0.37035,0.65457 0.0933,0.49853 0.10336,0.62012 0.0101,0.12159 0.10335,-0.35313 0,0.10335 -0.10336,0.45648 -0.8017,2.33441 -2.35128,2.99724 -1.54958,0.66283 -4.66812,3.04029 -5.78777,4.41833 -1.82677,2.24832 0.91874,-1.29912 -1.26607,-0.2067 -0.63803,0.31902 -1.27711,1.68682 -1.60197,2.0929 -0.32486,0.40608 -1.31194,1.28982 -2.22209,2.09289 -0.91015,0.80307 -2.17888,1.19708 -3.10058,1.86036 -0.9217,0.66328 -1.98955,0.65813 -2.11794,1.11104 -0.1284,0.45291 1.05454,0.38191 1.49782,0.8785 0.55382,0.66632 3.96116,0.719 6.56291,1.36943 2.60175,0.65043 3.99104,1.77737 5.45187,2.35127 1.46083,0.5739 0.62821,1.12722 1.36942,1.73117 0.74121,0.60395 1.97843,0.76554 2.94556,0.85266 0.96713,0.0871 1.87326,-0.10336 1.98954,-0.10336 h 0.25839 c 0.0856,0 3.91727,1.66997 4.96094,2.94556 1.04367,1.27559 0.65456,1.62781 1.60197,2.11874 0.94741,0.49093 1.82818,1.37215 1.73116,1.73116 -0.097,0.35901 -0.0503,0.21569 -0.36174,0.12919 -0.31143,-0.0865 -1.03353,-0.25838 -1.13688,-0.25838 -0.10336,0 -1.83452,-0.95602 0,0.38757 1.83452,1.34359 6.6232,4.47863 7.18303,4.70256 0.55983,0.22393 0.33547,0.41902 0.38757,0.59428 0.0521,0.17526 0.11056,0.25271 0,0.38757 -0.11056,0.13486 -0.4767,0.11241 -0.64595,0.12919 -0.16925,0.0168 -0.36174,0.45647 -0.36174,0 0,-0.45648 -4.48596,-2.65516 -7.31222,-3.82405 -2.82626,-1.16889 -1.44694,-1.0077 -1.73116,-1.0077 -0.28422,0 -0.47404,0.50098 -1.47278,0.10336 -0.99874,-0.39762 -3.22116,-1.38667 -4.08244,-1.47278 -0.86128,-0.0861 -0.0292,0.0381 0,0.12919 0.0292,0.0911 0.2226,0.25017 0.25838,0.36173 0.0358,0.11156 0.0457,0.2127 0,0.25839 -0.0457,0.0457 0.0689,0 -0.12919,0 -0.1981,0 -1.93504,-0.73961 -4.83175,-1.86036 -2.89671,-1.12075 -4.94371,-1.49861 -5.19348,-1.49861 -0.24977,0 -0.10335,-0.12058 -0.25838,0 -0.15503,0.12057 -0.46509,0.36173 -0.85267,0.36173 -0.38757,0 -4.04439,-1.45949 -5.96863,-2.19625 -1.92424,-0.73676 -2.67828,-0.86387 -4.31498,-1.24023 -1.6367,-0.37636 -1.50723,0.12919 -1.73116,0.12919 -0.22393,0 0.2756,-0.25838 -0.25839,0 -0.53399,0.25838 -1.60197,2.85943 -1.60197,4.18579 0,1.32636 0.74931,0.73039 0.74931,2.11874 0,1.38835 -0.32637,3.50696 -1.00769,4.83175 -0.68132,1.32479 -1.50641,2.87373 -1.60197,4.21163 -0.0956,1.3379 -0.22198,1.33293 -0.49093,0.8785 -0.26895,-0.45443 -0.76652,-1.26608 -0.87849,-1.26608 -0.11196,0 -1.43833,7.20026 -1.47278,7.57061 -0.0344,0.37034 -0.29284,1.11104 -0.38758,1.11104 -0.0947,0 -0.2127,0.0457 -0.25838,0 -0.0457,-0.0457 -0.0861,1.49 0,-0.12919 0.0861,-1.6192 0.34459,-4.62391 0.25838,-5.8136 -0.0862,-1.18969 -0.25838,-2.93695 -0.25838,-3.10059 0,-0.16364 0.32729,-1.06798 0,-1.47278 -0.32728,-0.4048 -1.06806,-0.78292 -0.98185,-1.62781 0.0862,-0.84489 0.25838,-3.01446 0.25838,-3.46232 v -0.25838 c 0,-0.20671 -0.14075,-0.75892 -0.36174,-0.74931 -0.22099,0.01 -0.40479,0.15503 -0.49092,0.15503 -0.0861,0 -0.13588,-0.18924 -0.15503,-0.25839 -0.0191,-0.0692 -0.0861,0.89572 0,-0.12919 0.0861,-1.02492 0.92935,-5.66344 1.26607,-7.18302 0.33672,-1.51958 0.14825,-0.81901 0.10335,-1.11105 -0.0449,-0.29204 0.0537,-1.03566 -1.21439,-0.74931 -1.26811,0.28635 -3.14365,1.81729 -3.61735,1.98955 -0.4737,0.17225 -0.0873,-0.17479 -0.10336,-0.25839 -0.0161,-0.0836 -0.19809,-0.21534 0,-0.23254 0.1981,-0.0172 2.61652,-1.72299 2.71302,-2.35128 0.0965,-0.62829 -0.19658,-1.90392 -0.62012,-2.11873 -0.42354,-0.21481 -1.02491,0.39619 -1.11104,0 -0.0861,-0.39619 -0.41634,-1.30433 -0.25839,-1.47278 0.15795,-0.16845 0.38758,-0.38758 0.38758,-0.77515 0,-0.38758 -0.0761,-0.83557 -0.64596,-0.72347 -0.56985,0.1121 -1.11966,0.51676 -1.2144,0.51676 -0.0947,0 -0.0947,-0.7407 0,-0.8785 0.0947,-0.1378 0.42203,-0.66092 0.49093,-1.00769 0.0689,-0.34677 -0.49093,-0.0951 -1.20104,-0.34677 -0.71011,-0.25171 -0.58429,-0.97067 0.80537,-1.09986 1.38967,-0.12919 1.22462,-0.64626 1.86845,-0.64626 0.64383,0 1.57613,0.0861 1.98954,0.12919 0.41341,0.043 0.46509,-0.36174 0.74931,-0.36174 0.28422,0 1.93163,0.56869 2.86805,0.23255 0.93642,-0.33614 0.78782,-2.85748 1.11104,-4.83175 0.32322,-1.97427 -0.57841,-0.82192 -0.15503,-2.35128 0.42338,-1.52936 1.26607,-4.22025 1.26607,-5.71025 0,-1.49001 0.38524,-2.70319 0.98186,-2.94556 0.59662,-0.24237 0.80622,-1.41555 1.47278,-1.98954 0.66656,-0.57399 1.17822,-0.21141 1.6278,-1.24024 0.44958,-1.02883 2.32545,-2.11873 3.10059,-2.11873 0.77515,0 0.0391,0.0701 0.10335,-0.23255 0.0642,-0.30267 -0.24665,-1.35532 0,-1.60197 0.24665,-0.24665 0.49093,-0.14642 0.49093,0 0,0.14642 0.58567,0.71486 0.8785,0.85266 0.29284,0.1378 0,-0.53398 0,-0.7493 0,-0.21532 -0.17224,-2.17903 -0.25838,-2.94556 -0.0861,-0.76654 0.15188,-0.12553 0.25838,-0.15503 z"
         style="font-size:52.9167px;font-family:'Another Danger - Demo';-inkscape-font-specification:'Another Danger - Demo';letter-spacing:39.6875px;fill:#000000;stroke-width:0.953195;paint-order:fill markers stroke"
         id="path4" />
      <path
         d="m 118.04663,110.42218 c 0.20463,0.091 0.44348,-1.07733 0.12919,0.20671 -0.31429,1.28404 -1.03353,4.1255 -1.03353,4.34082 0,0.21532 0.39619,0.70624 0.1292,1.57613 -0.267,0.86989 -0.80099,2.30822 -0.80099,3.3073 0,0.99908 -0.6029,2.95417 -0.90434,3.28145 -0.30145,0.32729 -0.26699,-0.0861 -0.23254,0.46509 0.0345,0.55122 0.10335,1.42111 0.10335,1.80868 0,0.38758 -2.04531,6.42855 -3.07475,9.56014 -1.02944,3.13159 -1.3544,3.15649 -2.04123,4.54753 -0.68683,1.39104 -0.47943,0.46932 -1.13688,1.70532 -0.65745,1.236 -1.09384,4.49585 -1.24025,5.58106 -0.14642,1.08521 0.92157,-0.64596 0.23255,1.34359 -0.68903,1.98955 -2.44571,7.67229 -2.63551,8.65581 -0.1898,0.98352 -0.78458,0.008 -1.70534,2.94556 -0.92076,2.93765 -1.38666,6.24424 -1.57614,6.38204 -0.18948,0.1378 -0.0947,0.37896 -0.12919,0 -0.0344,-0.37896 -0.10336,-1.51584 -0.10336,-1.70533 V 163.959 c 0,-0.0986 -0.46509,-0.90377 -0.46509,0.23254 0,1.13631 -1.772175,6.95391 -2.842207,9.6635 -1.070032,2.70959 -0.637344,1.47278 -0.775147,1.47278 -0.137804,0 -0.08656,0.0426 -0.129191,0 -0.04263,-0.0426 0,0.32728 0,-0.23255 0,-0.55983 1.223011,-5.71025 1.834518,-7.72563 0.611507,-2.01538 -0.146415,-1.63642 0,-2.73885 0.146415,-1.10243 0.439247,-3.83267 0.439247,-4.18579 0,-0.35312 -0.82554,0.76866 -0.439247,-2.06706 0.386297,-2.83572 1.576137,-7.9754 1.576137,-8.73332 0,-0.75792 0.0274,-0.10178 0,-0.12919 -0.0274,-0.0274 0.01,-0.0817 -0.10336,0 -0.11338,0.0817 -0.14142,0.55756 -0.23254,0.69763 -0.0911,0.14007 -0.46509,0.12735 -0.46509,0 v -0.12919 c 0,-0.35312 0.75792,-3.45371 1.13688,-4.65089 0.37896,-1.19717 0.59428,-0.77515 -0.10335,0 -0.69763,0.77515 -3.246703,3.0324 -3.87574,3.6432 -0.629037,0.6108 -1.57989,2.10396 -2.609661,3.41064 -1.029771,1.30668 -0.981853,0.90434 -1.240235,0.90434 -0.258383,0 -0.232544,0.11196 -0.232544,0 0,-0.11196 -0.223932,-0.3359 -0.335897,-0.3359 -0.111966,0 -0.301446,-0.95602 0,0.43925 0.301446,1.39527 0.904338,5.49493 0.904338,6.1495 0,0.65456 -0.174205,0.091 -0.232544,0.10336 -0.05834,0.0124 -0.03445,0.009 -0.103353,0 -0.0689,-0.009 -0.565971,-1.80031 -0.904338,-2.94556 -0.338367,-1.14525 -0.723471,-1.83452 -0.930177,-2.50631 -0.206706,-0.6718 -0.103352,-0.62873 -0.206705,-0.10335 -0.103353,0.52537 -0.792373,1.57613 -1.03353,1.57613 -0.241157,0 -0.07935,-0.11945 -0.103353,-0.23255 -0.024,-0.1131 -0.146416,0.16364 0,-0.43925 0.146416,-0.60289 0.43925,-1.96371 0.43925,-2.04122 0,-0.0775 -0.137804,-0.24116 -0.232544,-0.12919 -0.09474,0.11196 -1.094567,2.40542 -1.808676,3.74655 -0.714109,1.34113 -0.800985,0.56844 -0.904338,0.56844 -0.103353,0 -0.09187,-0.0766 -0.129191,-0.20671 -0.03732,-0.13012 -0.24977,-0.21532 0,-0.56844 0.249769,-0.35313 0.9613,-3.09559 1.369426,-4.44418 0.408126,-1.34859 0.568441,-1.09381 0.568441,-1.36942 v -0.10336 c 0,-0.0861 -0.447863,-1.1541 -0.671794,-1.60197 -0.223932,-0.44786 -0.06029,0 -0.129191,0 -0.0689,0 -0.206706,0.22394 -0.206706,0.3359 0,0.11197 -0.06029,0 -0.232544,0 -0.172255,0 -1.154108,-3.25561 -1.472779,-4.88342 -0.318672,-1.6278 -0.129191,-0.55982 -0.129191,0 0,0.55983 -0.452303,4.07761 -1.576132,5.8136 -1.123829,1.73599 -1.565735,2.03357 -1.601971,2.71301 -0.03624,0.67944 -0.103353,0.534 -0.103353,0.80099 0,0.267 -0.111966,0.46508 0,0.80098 0.111965,0.3359 0.491201,0.47253 0.335897,1.13688 -0.155304,0.66435 -0.654381,3.20776 -1.60197,4.21164 -0.947589,1.00388 -1.255135,0.49661 -1.472779,1.57613 -0.217644,1.07952 -1.12827,2.04122 -1.369427,2.04122 -0.241157,0 0.05168,0.24116 0,-0.10335 -0.05168,-0.34451 -0.216872,-1.55112 -0.568441,-1.03353 -0.351569,0.51759 -1.720064,3.65465 -2.506308,5.4777 -0.786244,1.82305 -0.568441,1.34359 -0.671794,1.34359 -0.103353,0 -0.165552,0.067 -0.232544,0 -0.06699,-0.067 -0.146417,0.43064 0,-0.3359 0.146416,-0.76653 1.283298,-4.71117 1.705323,-5.91695 0.422024,-1.20578 -0.0934,-0.54167 -0.103353,-0.6718 -0.01,-0.13013 -0.111966,0.39619 0,-0.10335 0.111965,-0.49954 0.335897,-1.56752 0.335897,-1.60197 0,-0.0344 0.18948,-0.10336 0,-0.3359 -0.189481,-0.23254 -0.568441,-0.92156 -0.568441,-1.03353 0,-0.11197 0.502882,-1.38142 0.568441,-1.80867 0.06556,-0.42725 -0.01308,-0.35702 0,-0.69763 0.01308,-0.34061 0.351172,-1.19234 0.103353,-1.34359 -0.247819,-0.15125 -0.218781,0.17355 -0.335897,0.2067 -0.117116,0.0332 -0.284131,0.0518 -0.335897,0 -0.05177,-0.0518 0,0.267 0,-0.10335 0,-0.37035 0.825201,-3.18934 1.472779,-5.58106 0.647578,-2.39172 0.827403,-2.79231 0.697632,-3.28145 -0.129771,-0.48914 -0.982617,0.74397 -0.568441,-1.03353 0.414176,-1.7775 1.386645,-5.88244 1.576133,-7.26054 0.189488,-1.3781 0.346202,-1.70181 0.232544,-1.93787 -0.113658,-0.23606 -0.335897,-0.95602 -0.335897,-1.13688 v -0.1292 c 0,-0.3359 0.419603,-1.92823 0.568441,-3.04891 0.148838,-1.12068 -0.129191,-1.86897 -0.129191,-2.17041 v -0.67179 c 0,-0.22394 0.06318,-0.39839 1.136882,-1.60197 1.073702,-1.20358 2.390037,-3.46318 2.635499,-4.08244 0.245462,-0.61926 0.21655,-0.58169 0.775147,-0.46509 0.558597,0.1166 0.852463,0.81916 1.136883,0.23254 0.28442,-0.58662 1.309136,-2.01538 1.60197,-2.17041 0.292833,-0.15503 0.361735,1.07659 0.465088,0.46509 0.103353,-0.61151 0.371747,-1.74451 0.43925,-1.83451 0.0675,-0.09 0.163642,-0.20671 0.232544,-0.20671 0.0689,0 0.204829,-0.10826 0.335897,0 0.131068,0.10826 0.172256,0.0603 0.129191,0.67179 -0.04306,0.6115 -0.129191,1.30052 -0.129191,2.04122 0,0.7407 1.064884,5.17269 1.60197,7.28638 0.537086,2.11369 -0.154614,1.43457 -0.232544,2.14458 -0.07793,0.71001 0.912951,2.60965 1.369427,3.41064 0.456475,0.80098 0.137804,0.69764 0,0.69764 -0.137804,0 -1.140782,-0.64281 -0.568441,0.67179 0.572341,1.3146 1.808676,4.53891 1.808676,5.24516 v 0.3359 c 0,0.1378 -0.492782,0.80734 -0.43925,1.36943 0.05353,0.56209 1.160681,-1.9602 2.273764,-3.87574 1.113083,-1.91554 4.019647,-4.32408 5.32268,-5.78776 1.30303,-1.46368 1.91294,-1.71612 3.87575,-4.10828 1.96281,-2.39216 2.23639,-3.00925 2.37107,-3.20345 0.13468,-0.19419 0.15399,-0.15606 0.2067,-0.36173 0.0527,-0.20567 0.0488,-0.69635 0.16111,-1.21489 0.11234,-0.51852 0.33589,-1.1455 0.33589,-1.70533 0,-0.55983 0.10333,-1.99451 0.10336,-2.71301 3e-5,-0.7185 -0.18261,-1.0501 -0.10336,-1.47278 0.0792,-0.42268 0.37035,-0.55122 0.43925,-0.56844 0.0689,-0.0172 -0.0912,-0.43393 -0.10335,-0.56844 -0.0121,-0.13451 0,0.38756 0,-0.23255 0,-0.62011 0.34553,-1.77906 1.60198,-2.40295 1.25645,-0.62389 1.99193,-1.77552 2.14458,-2.37712 0.15265,-0.6016 0.99047,-0.67179 1.26608,-0.67179 0.27561,0 -0.16365,-0.22393 0.10335,0 0.26699,0.22393 1.15686,1.10211 1.70532,0.77514 0.54846,-0.32697 0.90434,-0.90434 1.13689,-0.90434 0.23254,0 -0.24978,0.80099 0.10335,0.80099 0.35312,0 1.24358,-1.23211 1.49862,-2.04122 0.25504,-0.80911 0.57051,-0.42685 0.77514,-0.3359 z"
         style="font-size:52.9167px;font-family:'Another Danger - Demo';-inkscape-font-specification:'Another Danger - Demo';letter-spacing:39.6875px;fill:#000000;stroke-width:0.953195;paint-order:fill markers stroke"
         id="path5" />
      <path
         d="m 137.76759,108.25177 c 0.0759,-0.023 -0.009,0 0.10335,0 0.11197,0 0.38082,3.06413 0.41341,3.61735 0.0326,0.55322 0.0222,0.84458 2e-5,1.24019 0,2.53774 0.57492,-1.49741 0.62711,-0.22388 0.0522,1.27352 -0.59273,2.1785 -0.4204,3.22111 0.17233,1.04261 0.51676,4.38389 0.51676,5.06429 v 0.31006 c 0,0.68041 -0.61738,3.21307 -1.03353,4.44418 -0.41615,1.23111 -0.51786,2.47045 -0.41341,4.23747 0.10445,1.76702 0.51677,2.68717 0.51677,2.89388 v 0.20671 c 0,0.25838 -0.75793,1.70532 -1.13689,2.17041 -0.37896,0.46509 -0.0982,0.0452 -0.10335,0.62012 -0.005,0.57492 0.35735,2.02959 0.41341,2.79053 0.0561,0.76094 0,1.59336 0,1.757 0,0.16364 -0.0689,0.85265 -0.10335,1.03352 -0.0345,0.18086 0.34451,1.17133 0.20671,1.65365 -0.13781,0.48231 -1.43708,3.58713 -0.72347,5.58106 0.71361,1.99393 2.06705,1.42971 2.06705,1.757 0,0.32728 -0.41341,0.72347 0,0.72347 0.41342,0 1.24024,0.48231 1.24024,0.72347 0,0.2134 -0.41341,0.12112 -0.41341,0.41341 0,0.18948 0.89573,0.31006 1.34359,0.31006 0.44787,0 0.68849,-0.0239 0.93017,0 0.24168,0.0239 0.4174,-0.0179 0.51677,0.10335 0.0994,0.12121 0.53399,0.34452 0,0.41342 -0.53399,0.0689 -1.25763,0.46917 -2.99724,0.93017 -1.73961,0.461 -3.8778,0.76384 -4.03076,0.82682 -0.15296,0.063 -0.19809,0.34451 -0.20671,0.51677 -0.009,0.17225 -0.17225,0.86989 0,1.34359 0.17226,0.4737 0.51677,1.70532 0.51677,2.06706 0,0.36173 -0.18056,3.47437 -1.03353,5.89111 -0.85297,2.41674 -1.36924,2.58928 -1.44694,3.92742 -0.0777,1.33814 -0.45647,1.65364 -0.72347,1.65364 -0.26699,0 -0.31006,-0.89573 -0.31006,-1.34359 0,-0.44787 -0.0344,-0.22394 -0.20671,0 -0.17225,0.22393 -0.40818,1.89265 -0.93018,3.82406 -0.522,1.93141 -1.41248,3.89296 -1.55029,4.54753 -0.1378,0.65457 -0.24916,0.0609 -0.31006,0 -0.0609,-0.0609 0,0.45647 0,-0.20671 0,-0.66318 0.75296,-4.56159 1.03353,-6.20117 0.28057,-1.63958 -0.27577,-0.96238 -0.2067,-1.86035 0.0691,-0.89797 0.2067,-1.67949 0.2067,-1.96371 0,-0.28422 -0.61455,-0.61686 -0.72347,-1.86035 -0.10892,-1.24349 0.41341,-2.30822 0.41341,-2.99724 0,-0.68902 -0.1378,-1.87757 -0.2067,-2.27376 -0.0689,-0.39619 -0.49264,0.39801 -0.51677,0.41341 -0.0241,0.0154 -0.0779,0.0147 -0.10335,0 -0.0255,-0.0147 -0.10335,-0.22393 -0.10335,-0.51676 0,-0.29284 0.53575,-3.88072 0.51676,-5.68441 -0.019,-1.80369 0.19032,-0.24128 -0.82682,-0.10336 -1.01714,0.13792 -3.06613,0.41341 -3.20394,0.41341 -0.1378,0 0.12058,0.10335 0,-0.10335 -0.12058,-0.20671 -0.9474,-0.62012 -1.24024,-0.62012 -0.29283,0 0.58567,-0.13781 -0.10335,0 -0.68902,0.1378 -1.79804,0.43273 -2.06706,1.03353 -0.26902,0.6008 -0.23244,1.60738 -1.13688,2.68718 -0.90444,1.0798 -2.37666,2.19268 -2.48047,2.99723 -0.10381,0.80455 -0.60951,1.3798 -1.03353,1.65365 -0.42402,0.27385 -0.20671,-0.13781 -0.20671,-0.20671 v -0.62011 c 0,-0.18948 0.0994,-0.39556 0,-0.51677 -0.0994,-0.12121 -0.0948,-0.22694 -0.31006,0 -0.21527,0.22694 -2.39426,3.9068 -3.30729,5.16765 -0.91303,1.26085 -0.91295,1.51584 -1.03353,1.55029 -0.12058,0.0344 -0.0221,0.0666 -0.10335,0 -0.0812,-0.0666 -0.20671,-0.36173 -0.10336,-0.51676 0.10336,-0.15503 0.19511,-1.02341 1.03353,-2.37712 0.83842,-1.35371 1.50859,-3.10762 1.757,-4.34082 0.24841,-1.2332 0.84526,-1.30358 0.72347,-1.86035 -0.12179,-0.55677 -0.71424,-0.31403 -0.41341,-1.13689 0.30083,-0.82286 1.08581,-2.66642 0.93018,-2.89388 -0.15563,-0.22746 -1.80515,-0.72347 -2.27377,-0.72347 -0.46862,0 -0.87552,0.15481 -1.31312,0.33101 -0.4376,0.1762 -1.00118,0.49581 -1.33555,0.63058 -0.33438,0.13476 -0.93399,0.35904 -1.48544,0.382 -0.55145,0.0229 -2.00677,0 -2.06706,0 -0.0603,0 -1.16272,-0.55122 -1.65365,-0.82682 -0.49092,-0.27561 -2.18287,0.32871 -2.58382,0 -0.40095,-0.32871 -0.20168,-0.48414 -0.10335,-0.51677 0.0983,-0.0326 0.64596,-0.41342 0.72347,-0.62012 0.0775,-0.20671 -0.88713,-0.10335 -0.93018,-0.10335 -0.043,0 -0.70608,0.0689 -1.03353,0.10335 -0.32745,0.0344 -0.19895,-0.13826 -0.82682,-0.10335 -0.62787,0.0349 -1.95509,0.20671 -2.377114,0.20671 -0.422023,0 -1.525564,0.23142 -1.756988,0 -0.231424,-0.23142 0,-0.009 0,-0.20671 0,-0.1981 2.752852,-0.66984 5.581042,-1.13688 2.82819,-0.46704 2.95382,-1.06578 2.99723,-1.34359 0.0434,-0.27781 2.9376,-0.60153 3.10059,-0.62012 0.16299,-0.0186 0.29675,-0.17553 0.31006,-0.31006 0.0133,-0.13453 -0.17372,-0.20116 -0.20671,-0.31006 -0.033,-0.1089 -0.18408,-0.25747 0,-0.31005 0.18408,-0.0526 7.23799,-0.57363 8.26824,-0.82683 1.03025,-0.2532 0.84923,-1.2746 1.44694,-2.79053 0.59771,-1.51593 1.13688,-2.30821 1.13688,-2.58382 0,-0.27561 -0.51746,-0.0206 -0.2067,-1.34359 0.31076,-1.32294 2.99675,-6.95811 4.13411,-9.30176 1.13736,-2.34365 0.46379,-2.36135 0.82683,-3.514 0.36304,-1.15265 0.58541,-1.40917 1.03353,-2.37712 0.44812,-0.96795 1.04367,-2.73143 1.44694,-4.13411 0.40327,-1.40268 1.58701,-1.28624 2.17041,-1.86036 0.5834,-0.57412 0.83125,-0.48108 1.34359,-1.13688 0.51234,-0.6558 0.58906,-1.05387 1.44694,-2.99723 0.85788,-1.94336 1.40778,-3.89355 1.9637,-3.82406 0.55592,0.0695 0.63494,0.29353 0.93018,0.2067 0.29524,-0.0868 0.72347,-1.53307 0.72347,-2.17041 0,-0.63735 0.31006,-0.24977 0.41341,-0.10335 0.10336,0.14641 0.26735,1.16522 0.51677,1.65365 0.24942,0.48843 0.68902,-2.34267 0.82682,-3.514 0.13781,-1.17133 0.23413,-0.18372 0.31006,-0.20671 z m -7.95818,27.28517 c -0.0401,0.1034 -1.53947,5.81303 -1.9637,6.51124 -0.42423,0.69821 -1.86398,3.69772 -2.06706,4.13411 -0.20308,0.43639 -0.75206,1.36658 -0.41341,1.34359 0.33865,-0.023 3.45361,-0.52042 3.81009,-0.5886 0.70618,-0.23789 0.4274,-0.501 0.4274,-2.50142 0,-2.00042 0.10333,-4.21359 0.31004,-5.48827 0.20671,-1.27469 0,-2.89383 0,-3.20394 0,-0.31011 -0.0632,-0.31011 -0.10336,-0.20671 z"
         style="font-size:52.9167px;font-family:'Another Danger - Demo';-inkscape-font-specification:'Another Danger - Demo';letter-spacing:39.6875px;fill:#000000;stroke:none;stroke-width:0.953195;stroke-opacity:1;paint-order:fill markers stroke"
         id="path6" />
      <path
         d="m 162.69049,115.40896 c 0.44786,0.0775 2.52724,-0.002 5.01261,0.3359 2.48537,0.33773 4.38032,1.04842 6.6921,2.55798 2.31178,1.50956 4.01037,3.52832 4.26331,3.95325 0.25294,0.42493 0.34621,0.36456 0.95602,0.93018 0.60981,0.56562 1.223,0.93873 1.60197,2.45463 0.37897,1.5159 0.72347,2.22209 0.72347,3.59151 0,1.36942 -3.25562,7.60506 -4.88343,9.74102 -1.62781,2.13596 -5.15903,4.52169 -5.21932,4.65088 -0.0603,0.12919 -1.44029,0.76928 -2.19625,1.29191 -0.75596,0.52263 -1.93348,1.17819 -3.04891,1.62781 -1.11543,0.44962 -0.94831,-0.0668 -0.36174,0.3359 0.58657,0.40272 3.34208,2.67164 4.49586,3.48816 1.15378,0.81652 0.70976,0.43525 0.98185,0.69763 0.27209,0.26238 1.02862,1.37335 1.47278,2.0929 0.44416,0.71955 0.69224,1.10565 1.31775,1.73116 0.62551,0.62551 1.12496,0.54351 2.19625,0.82682 1.07129,0.28331 1.72035,0.71052 2.06706,1.39527 0.34671,0.68475 1.21865,0.98502 1.70532,1.6278 0.48667,0.64278 0.21478,0.82828 0.12919,0.90434 -0.0856,0.0761 -0.31867,0.12919 -0.36173,0.12919 -0.0431,0 -0.0258,-0.0172 0,0.10336 0.0259,0.12057 1.48999,1.60196 2.19624,2.22208 0.70624,0.62011 0,0.16365 0,0.23255 0,0.0689 -0.63454,-0.093 -1.11104,0.3359 -0.4765,0.42887 0.87774,1.09664 1.34359,1.52445 0.46585,0.42781 0.94037,0.86837 1.70532,1.73116 0.76495,0.86279 0.54757,1.41352 0.85266,1.52446 0.30509,0.11094 1.06798,0.77514 1.34359,1.16272 0.2756,0.38757 -0.62012,0.0947 -0.62012,0 0,-0.0947 -0.85846,-0.52324 -2.66133,-2.22209 -2.29466,-2.16227 -2.93065,-1.99574 -7.31222,-4.75423 -0.62015,-0.61153 -1.29916,-0.62895 -1.70533,-0.82683 -0.40617,-0.19788 -0.15502,-0.33589 -0.23254,-0.33589 -0.0775,0 -0.048,-0.0617 -0.12919,0 -0.0812,0.0617 -0.0171,0.37992 -0.12919,0.46508 -0.11205,0.0852 0.0689,0.59427 -0.36174,0 -0.43064,-0.59428 -3.48129,-3.08823 -4.98678,-4.28914 -1.50549,-1.20091 -1.5599,-0.82213 -2.81636,-1.05937 -1.25646,-0.23724 -2.31527,-1.67616 -2.79053,-2.19625 -0.47526,-0.52009 -0.96054,-0.61224 -1.47278,-0.93018 -0.51224,-0.31794 -1.76267,-1.32417 -3.28146,-2.45463 -1.51879,-1.13046 -2.04122,-0.93017 -2.2996,-0.93017 -0.25839,0 -0.20672,-0.043 -0.36174,0 -0.15503,0.043 -0.9265,1.60696 -1.47277,2.45463 -0.54627,0.84767 -0.49093,1.24023 -0.49093,1.86035 0,0.62011 -0.0538,0.57626 0,0.93018 0.0538,0.35392 0.32865,0.94505 0.36173,1.16272 0.0331,0.21767 0,-0.28423 0,0.10335 0,0.38757 -1.23659,3.59755 -2.06705,4.88343 -0.83046,1.28588 -0.12318,-1.49217 -0.72347,-0.23255 -0.60029,1.25962 -1.16474,3.83217 -1.47278,3.59152 -0.30804,-0.24065 -0.45648,-0.69764 -0.72347,-0.69764 -0.26699,0 -0.62012,0.0861 -0.62012,0.59428 0,0.50815 -1.34917,2.37369 -2.4288,4.28915 -1.07963,1.91546 -0.89572,2.32544 -0.95601,2.32544 -0.0603,0 -0.12919,-0.35313 -0.12919,-0.46509 0,-0.11197 1.61919,-4.29776 2.42879,-6.27869 1.28862,-3.15305 -1.3706,0.58228 0,-3.02307 0.85822,-2.25755 -0.0876,-1.08196 -0.23254,-1.33294 -0.14489,-0.25098 0.43063,-3.29211 0.59428,-4.68737 0.16364,-1.39527 -0.13209,0.082 -0.23255,0.10335 -0.10046,0.0213 -0.29169,0.07 -0.36173,0 -0.07,-0.07 -0.17226,0.57706 0,-0.23254 0.17225,-0.8096 1.61919,-5.37435 2.17041,-6.84713 0.55121,-1.47278 0.62011,-1.4814 0.25838,-1.62781 -0.36174,-0.14642 -1.73978,-1.1455 -2.06706,-1.49862 -0.32729,-0.35313 0.0864,-0.55497 0.10336,-0.82682 0.0169,-0.27185 -0.0446,-0.62884 0,-0.80099 0.0446,-0.17215 0.026,-0.20642 -0.0363,-0.27392 -0.0623,-0.0675 -2.55646,-0.71266 -2.49583,-0.78544 0.0606,-0.0728 -0.0693,-0.10333 0.36173,-0.10336 0.43107,-3e-5 1.48139,0.10336 1.70533,0.10336 h 0.46509 c 0.0603,0 1.54871,0.16595 0.38757,-0.3359 -1.16114,-0.50185 -4.42696,-1.87758 -5.01262,-2.32544 -0.58567,-0.44786 -0.21531,-0.23255 0.38758,0 0.60289,0.23254 4.03074,0.59517 4.13409,0.60108 0.49491,-0.0492 0.55333,-0.48613 0.49095,-0.83362 -0.0156,-0.17311 0,-0.15502 0,-0.46508 0,-0.31006 0.8096,-1.24024 1.2144,-1.39527 0.4048,-0.15503 0.32427,-0.35591 0.36173,-0.46509 0.0375,-0.10918 0.16364,0.10335 0,-0.10335 -0.16364,-0.20671 -0.50826,-0.83421 -0.49092,-1.05937 0.0173,-0.22516 0.15573,-0.45202 0.23254,-0.23254 0.0768,0.21948 0.82682,0.72347 1.24023,0.82682 0.41341,0.10335 0,-0.27561 0,-0.59428 0,-0.31867 -0.7407,-2.24793 -1.11104,-2.89388 -0.37035,-0.64596 -0.0974,-0.36765 0,-0.46509 0.0974,-0.0974 -0.17225,-1.0077 0.36174,0 0.53399,1.00769 1.97231,3.44719 2.55798,3.02308 0.58567,-0.42411 0.68039,-3.22953 0.74931,-4.54753 0.0689,-1.318 0.39619,-1.0077 0.59428,-1.26608 0.19809,-0.25839 0,-0.36174 0,-0.69763 0,-0.3359 0.40777,-1.49759 0.62012,-1.86035 0.21235,-0.36276 -0.5529,0.2596 -0.25839,-0.69763 0.29451,-0.95723 2.57416,-2.94103 4.26331,-3.35897 1.68915,-0.41794 1.83452,-0.42203 1.83452,-0.59428 0,-0.17226 0.18087,-0.10336 0,-0.10336 -0.18087,0 -0.66319,-0.0862 -0.72347,-0.12919 -0.0603,-0.043 -1.20579,0.31006 -1.60197,0.23255 -0.39619,-0.0775 -1.92926,-0.45648 -2.29961,-0.56844 -0.37035,-0.11197 -0.0311,-0.1266 0,-0.23255 0.0311,-0.10595 0.32467,-0.19299 0.23255,-0.36173 -0.0921,-0.16874 -0.24116,-0.15503 -0.72347,0 -0.48231,0.15503 -3.00752,0.59426 -4.03077,0.59428 -1.02325,2e-5 -0.72347,-0.12919 -0.85266,-0.12919 -0.12919,0 -0.16364,-0.3359 0,-0.3359 0.16365,0 0.84817,-0.0807 0.74931,-0.46509 -0.0989,-0.38442 0.93103,-0.86428 -0.49093,-0.59428 -1.42196,0.27 -4.74244,1.23795 -5.60689,1.86035 -0.86445,0.6224 -1.40388,0.93018 -1.70533,0.93018 -0.30144,0 0.28737,-0.47015 -0.49092,-0.10335 -0.77829,0.3668 -2.20486,1.16272 -2.29961,1.16272 -0.0947,0 -2.91972,1.26607 0,-0.36174 2.91973,-1.62781 10.55286,-4.74944 10.95542,-4.88342 0.40256,-0.13398 1.02154,-0.28944 1.43266,-0.38727 0.41112,-0.0978 0.99613,-0.28258 1.48706,-0.41372 0.49093,-0.13114 2.46209,-1.00678 4.13411,-1.16272 1.67202,-0.15594 4.02216,-0.55122 4.98678,-0.59428 0.96463,-0.0431 0.12058,-0.10335 0,-0.10335 -0.12057,0 -0.36173,-0.15503 -0.36173,-0.23255 0,-0.0775 -0.44786,-0.31005 0,-0.23254 z m 3.41064,6.38204 c -0.18088,0 0.0652,-0.12066 -0.72347,-0.10335 -0.78866,0.0173 -1.70532,0.43063 -1.70532,0.56844 0,0.13781 -0.0496,0.46509 0,0.82682 0.0497,0.36173 0.36173,1.39526 0.36173,2.66134 0,1.26607 -0.48526,1.78995 -0.98185,2.19625 -0.49659,0.4063 -0.44787,0.93018 -0.59428,0.93018 -0.14641,0 0,0.51677 0,0.59428 0,0.0775 -1.13688,2.40295 -1.70532,3.48816 -0.56844,1.08521 0,0.31005 0,0.3359 0,0.0259 0.14666,0.8002 0.12919,1.52445 -0.0175,0.72425 -1.10956,1.97002 -1.70532,2.89388 -0.59576,0.92386 -0.57834,1.07048 -0.25839,1.62781 0.31995,0.55733 0.62513,0.49135 1.96371,0.3359 1.33858,-0.15545 4.8232,-0.97463 5.96863,-1.62781 1.14543,-0.65318 0.45612,-1.08897 1.2144,-1.49862 0.75828,-0.40965 1.46645,-1.02304 2.42879,-1.39526 0.96234,-0.37222 1.82301,-1.20038 2.2996,-2.0929 0.47659,-0.89252 1.13688,-2.35989 1.47278,-3.25561 0.33589,-0.89572 -0.17224,-0.0861 -0.12919,-0.23255 0.043,-0.14642 0.67335,1.01289 0.12919,-0.80098 -0.54416,-1.81387 -3.32915,-5.97542 -4.49585,-6.51124 -1.1667,-0.53582 -0.62012,-0.27561 -0.62012,-0.3359 0,-0.0603 0.2067,-0.23254 0.12919,-0.23254 -0.0775,0 -0.23907,-0.39806 -1.11104,-0.36173 -0.87197,0.0363 -1.88618,0.46508 -2.06706,0.46508 z"
         style="font-size:52.9167px;font-family:'Another Danger - Demo';-inkscape-font-specification:'Another Danger - Demo';letter-spacing:39.6875px;fill:#000000;stroke-width:0.953195;paint-order:fill markers stroke"
         id="path7" />
      <path
         d="m 257.15005,108.71686 c 0.10959,-0.003 0.19059,0.13127 0.23254,0.23255 0.056,0.13527 0.01,0.29317 0,0.43925 -0.11654,1.71716 -0.58109,3.39881 -0.69763,5.11597 -0.0437,0.64447 -0.18719,1.31963 0,1.93787 0.081,0.26749 0.42959,0.42041 0.46509,0.69763 0.0602,0.4701 -0.38649,0.87622 -0.46509,1.34359 -0.0314,0.18686 0.01,0.37921 0,0.56844 -0.0949,1.83325 -0.51721,3.64271 -0.56844,5.4777 -0.0253,0.90501 0.29008,1.82207 0.12919,2.71302 -0.51287,2.84014 -2.83035,5.13103 -3.41064,7.95817 -0.0606,0.29529 -0.0222,0.60371 0,0.90434 0.0173,0.23445 0.13106,0.46419 0.10335,0.69763 -0.13029,1.09745 -0.73145,2.09368 -1.24024,3.07475 -0.22657,0.43688 -0.93417,0.76647 -0.80098,1.24024 0.0802,0.28534 0.53872,0.24807 0.80098,0.38618 0.38642,0.2035 1.19239,0.21805 1.13689,0.65124 -0.0703,0.54887 -1.1862,0.0702 -1.60197,0.43536 -0.58888,0.5172 -1.14138,1.42336 -0.90434,2.17041 0.1908,0.60131 1.71483,0.38702 1.60197,1.00769 -0.0692,0.38057 -0.8923,-0.0671 -1.13688,0.23254 -0.0272,0.0334 -0.026,0.0949 0,0.12919 0.53904,0.71019 2.03718,0.009 2.57622,0.71941 0.0729,0.096 0.0794,0.27101 0,0.36172 -0.82253,0.93946 -2.73925,-0.28649 -3.71311,0.495 -1.38769,1.11358 -1.01299,3.43437 -1.83451,5.01261 -0.57696,1.10842 -1.65667,1.92435 -2.14457,3.07475 -0.31525,0.74331 -0.50115,1.57054 -0.46509,2.37713 0.0248,0.55548 0.48714,1.04636 0.46509,1.60196 -0.0511,1.28828 -0.7621,2.48005 -1.36943,3.61735 -0.39852,0.74628 -1.07667,1.31949 -1.47278,2.06706 -0.56778,1.07156 -0.64242,2.37062 -1.26607,3.41065 -0.20709,0.34536 -0.41085,1.00409 -0.80099,0.90434 -0.48784,-0.12473 0.15998,-1.38531 -0.3359,-1.47278 -0.48465,-0.0855 -0.56831,0.80658 -0.80098,1.24024 -0.97741,1.8217 -1.55287,3.83685 -2.48047,5.68441 -0.31156,0.62056 -0.33942,1.82794 -1.03353,1.80867 -0.077,-0.002 -0.0856,-0.13173 -0.10335,-0.2067 -0.01,-0.0419 -0.005,-0.0865 0,-0.12919 0.32124,-2.524 1.72014,-4.85262 1.91203,-7.38974 0.0255,-0.3367 -0.128,-0.67093 -0.10336,-1.00769 0.046,-0.62917 0.38697,-1.20852 0.46509,-1.83452 0.01,-0.0769 0.0111,-0.15582 0,-0.23254 -0.0783,-0.54214 -0.38677,-1.03399 -0.46509,-1.57613 -0.006,-0.0426 -0.004,-0.0863 0,-0.1292 0.15133,-1.68258 1.98709,-3.69 0.90434,-4.98677 -0.0221,-0.0264 -0.0705,-0.0103 -0.10335,0 -0.12999,0.0406 -0.20591,0.19194 -0.3359,0.23255 -0.074,0.0231 -0.16093,0.0297 -0.23254,0 -0.10128,-0.042 -0.20598,-0.12619 -0.23255,-0.23255 -0.7878,-3.15342 2.0066,-6.18651 2.84221,-9.3276 0.12945,-0.48661 0.27956,-0.97241 0.3359,-1.47278 0.009,-0.077 0.0297,-0.16093 0,-0.23254 -0.16314,-0.39386 -0.49202,-0.79603 -0.90434,-0.90435 -0.68312,-0.17946 -1.34143,0.47282 -2.04122,0.56844 -0.1536,0.021 -0.32031,0.0554 -0.46509,0 -0.42148,-0.16139 -0.56905,-0.79809 -1.00769,-0.90433 -0.72686,-0.17604 -1.42866,0.47292 -2.17041,0.56844 -0.15376,0.0198 -0.31168,0.0223 -0.46509,0 -0.65798,-0.0957 -1.32149,-0.87401 -1.91203,-0.56844 -0.95308,0.49315 -0.61621,2.06027 -1.03353,3.04891 -0.71453,1.69271 -1.7664,3.2275 -2.50631,4.90927 -0.4368,0.99282 -0.90104,1.9902 -1.13688,3.04891 -0.0921,0.4133 -0.13355,0.84373 -0.10335,1.26608 0.0359,0.50225 0.35991,0.96981 0.33589,1.47277 -0.0628,1.314 -0.63222,2.57999 -1.24023,3.74655 -0.35269,0.67669 -1.02538,1.15338 -1.36943,1.8345 -0.53561,1.06034 -0.41463,2.39667 -1.03353,3.41065 -0.19357,0.31714 -0.45656,0.63578 -0.80098,0.77515 -0.0319,0.0129 -0.0774,0.0227 -0.10336,0 -0.19612,-0.17171 -0.0861,-0.51505 -0.10335,-0.77515 -0.0126,-0.18906 0.13398,-0.43446 0,-0.56844 -0.10962,-0.10962 -0.33154,-0.0787 -0.46509,0 -1.82326,1.07476 -1.93772,3.77013 -3.07475,5.55522 -0.37761,0.59283 -0.57181,1.92269 -1.24023,1.70533 -0.0328,-0.0106 -0.007,-0.0697 0,-0.10336 0.3874,-1.82551 1.79895,-3.31121 2.27376,-5.11596 0.38747,-1.47278 0.7174,-3.05025 0.43925,-4.54753 -0.0774,-0.41656 -0.5065,-0.71774 -0.56844,-1.13688 -0.16353,-1.10658 0.4247,-2.19798 0.56844,-3.3073 0.0633,-0.48873 0.46209,-1.1094 0.12919,-1.47278 -0.0291,-0.0318 -0.0881,-0.0128 -0.12919,0 -0.12998,0.0406 -0.20591,0.19194 -0.33589,0.23255 -0.0329,0.0103 -0.07,0.009 -0.10336,0 -0.0858,-0.0222 -0.19917,-0.047 -0.23254,-0.12919 -1.38415,-3.40811 2.64272,-6.92855 3.1781,-10.56784 0.0326,-0.22155 0.0442,-0.45226 0,-0.67179 -0.0571,-0.28384 -0.31533,-0.5122 -0.3359,-0.80099 -0.0753,-1.05645 1.27237,-2.12631 0.80099,-3.07475 -0.43994,-0.88518 -2.18999,-0.31478 -2.73885,-1.13688 -0.0191,-0.0286 -0.0152,-0.0724 0,-0.10335 0.16795,-0.34168 0.95054,-0.31974 0.90434,-0.69765 -0.21574,-1.76472 -3.2831,-1.37014 -4.88343,-2.14456 -0.57917,-0.28027 -1.69904,-0.26095 -1.70532,-0.90434 -8.6e-4,-0.0887 0.14543,-0.11263 0.23254,-0.12919 0.97982,-0.18623 1.97228,0.31032 2.96628,0.39216 1.20407,0.0991 2.25304,0.5245 3.62247,0.11905 0.19642,-0.0582 0.0829,-0.42722 0,-0.61456 -0.20719,-0.46837 -1.19723,-0.52495 -1.13688,-1.03353 0.0359,-0.30238 0.80858,-0.13484 0.80098,-0.43925 -0.0241,-0.96655 -1.87548,-0.63696 -2.60966,-1.26607 -0.10341,-0.0886 -0.27486,-0.20646 -0.23254,-0.3359 0.0736,-0.22523 0.43655,-0.20402 0.67179,-0.23254 1.21068,-0.14678 2.42493,0.27985 3.64319,0.33589 0.34415,0.0158 0.69498,0.0638 1.03353,0 0.77746,-0.14653 1.67964,-0.27746 2.21063,-0.86395 0.80184,-0.88564 0.6104,-2.31095 0.96747,-3.45103 0.20433,-0.65242 0.41675,-1.30355 0.6718,-1.93787 0.74617,-1.85573 1.49512,-3.72619 2.50631,-5.45187 0.85092,-1.45216 1.6188,-3.08077 2.97139,-4.08244 0.19044,-0.14103 0.43518,-0.21963 0.6718,-0.23254 0.50279,-0.0274 0.99453,0.49346 1.47278,0.3359 0.61488,-0.20257 0.64392,-1.65177 1.26607,-1.47278 0.44365,0.12764 -0.14324,1.06833 0.2067,1.36942 0.0327,0.0281 0.0914,0.0206 0.1292,0 1.10496,-0.60355 0.78398,-3.24561 2.04122,-3.1781 0.0769,0.004 0.0857,0.13174 0.10335,0.20671 0.0277,0.11735 0.0108,0.24164 0,0.36173 -0.20755,2.3017 -1.15021,4.512 -1.24024,6.82129 -0.0297,0.7613 0.19374,1.51288 0.23255,2.27377 0.01,0.18923 0.0392,0.38306 0,0.56844 -0.44457,2.10124 -1.91609,3.85844 -2.60966,5.89112 -0.4668,1.36808 -2.11889,3.25687 -1.03353,4.21163 0.70014,0.6159 1.68103,-0.92294 2.60966,-1.00769 1.38782,-0.12665 2.72074,0.64539 4.10828,0.77514 0.0343,0.003 0.0714,0.013 0.10335,0 0.44569,-0.18131 0.67254,-0.68957 1.03353,-1.00769 0.3633,-0.32015 0.86609,-0.50289 1.13688,-0.90433 0.13563,-0.20107 0.1819,-0.45637 0.20671,-0.69764 0.0424,-0.41267 -0.0861,-0.82575 -0.10336,-1.24023 -0.008,-0.18932 -0.0289,-0.38117 0,-0.56844 0.0784,-0.50881 0.53322,-0.96248 0.46509,-1.47278 -0.019,-0.14208 -0.19215,-0.2242 -0.23254,-0.36174 -0.0315,-0.10743 -0.0122,-0.22459 0,-0.33589 0.16895,-1.54339 1.97957,-3.33672 1.00769,-4.54753 -0.14017,-0.17463 -0.48938,0.12989 -0.67179,0 -0.19303,-0.13745 -0.24542,-0.43518 -0.23255,-0.6718 0.0481,-0.8848 0.79683,-1.58469 1.13688,-2.40295 0.4778,-1.14971 1.25826,-2.26898 1.26608,-3.514 0.001,-0.23697 -0.19325,-0.43811 -0.23255,-0.6718 -0.007,-0.0425 -0.005,-0.0864 0,-0.12919 0.1128,-0.9248 0.559,-1.78821 0.6718,-2.71301 0.074,-0.60701 -0.23401,-1.26956 0,-1.83452 0.47078,-1.13656 1.73704,-1.74251 2.60966,-2.60966 0.68688,-0.68257 1.17126,-1.67346 2.06706,-2.04122 0.0319,-0.0131 0.0691,-0.003 0.10335,0 0.57663,0.0563 1.14721,0.49136 1.70532,0.3359 0.49337,-0.13743 0.63345,-1.12757 1.13689,-1.03353 0.34076,0.0636 0.11843,0.93243 0.46508,0.93018 0.59321,-0.004 0.44302,-1.11044 0.77515,-1.60197 0.28674,-0.42436 0.52152,-1.12471 1.03353,-1.13689 z m -2.37712,21.70412 c -0.0548,0.0548 -0.0725,0.20499 0,0.23254 0.0969,0.0369 0.24919,-0.13793 0.20671,-0.23254 -0.0282,-0.0629 -0.15799,-0.0487 -0.20671,0 z"
         style="font-size:52.9167px;font-family:'Another Danger - Demo';-inkscape-font-specification:'Another Danger - Demo';letter-spacing:39.6875px;fill:#000000;stroke-width:0.953195;paint-order:fill markers stroke"
         id="path8" />
      <path
         d="m 327.7162,110.42218 c 0.20463,0.091 0.44348,-1.07733 0.12919,0.20671 -0.31429,1.28404 -1.03353,4.1255 -1.03353,4.34082 0,0.21532 0.39619,0.70624 0.1292,1.57613 -0.267,0.86989 -0.80099,2.30822 -0.80099,3.3073 0,0.99908 -0.6029,2.95417 -0.90434,3.28145 -0.30145,0.32729 -0.26699,-0.0861 -0.23254,0.46509 0.0345,0.55122 0.10335,1.42111 0.10335,1.80868 0,0.38758 -2.04531,6.42855 -3.07475,9.56014 -1.02944,3.13159 -1.3544,3.15649 -2.04123,4.54753 -0.68683,1.39104 -0.47943,0.46932 -1.13688,1.70532 -0.65745,1.236 -1.09384,4.49585 -1.24025,5.58106 -0.14642,1.08521 0.92157,-0.64596 0.23255,1.34359 -0.68903,1.98955 -2.44571,7.67229 -2.63551,8.65581 -0.1898,0.98352 -0.78458,0.008 -1.70534,2.94556 -0.92076,2.93765 -1.38666,6.24424 -1.57614,6.38204 -0.18948,0.1378 -0.0947,0.37896 -0.12919,0 -0.0344,-0.37896 -0.10336,-1.51584 -0.10336,-1.70533 V 163.959 c 0,-0.0986 -0.46509,-0.90377 -0.46509,0.23254 0,1.13631 -1.77218,6.95391 -2.84221,9.6635 -1.07003,2.70959 -0.63734,1.47278 -0.77514,1.47278 -0.13781,0 -0.0866,0.0426 -0.1292,0 -0.0426,-0.0426 0,0.32728 0,-0.23255 0,-0.55983 1.22302,-5.71025 1.83452,-7.72563 0.61151,-2.01538 -0.14641,-1.63642 0,-2.73885 0.14642,-1.10243 0.43925,-3.83267 0.43925,-4.18579 0,-0.35312 -0.82554,0.76866 -0.43925,-2.06706 0.3863,-2.83572 1.57614,-7.9754 1.57614,-8.73332 0,-0.75792 0.0274,-0.10178 0,-0.12919 -0.0274,-0.0274 0.01,-0.0817 -0.10336,0 -0.11338,0.0817 -0.14142,0.55756 -0.23254,0.69763 -0.0911,0.14007 -0.46509,0.12735 -0.46509,0 v -0.12919 c 0,-0.35312 0.75792,-3.45371 1.13688,-4.65089 0.37896,-1.19717 0.59428,-0.77515 -0.10335,0 -0.69763,0.77515 -3.2467,3.0324 -3.87574,3.6432 -0.62904,0.6108 -1.57989,2.10396 -2.60966,3.41064 -1.02977,1.30668 -0.98185,0.90434 -1.24024,0.90434 -0.25838,0 -0.23254,0.11196 -0.23254,0 0,-0.11196 -0.22393,-0.3359 -0.3359,-0.3359 -0.11196,0 -0.30144,-0.95602 0,0.43925 0.30145,1.39527 0.90434,5.49493 0.90434,6.1495 0,0.65456 -0.1742,0.091 -0.23254,0.10336 -0.0583,0.0124 -0.0344,0.009 -0.10336,0 -0.0689,-0.009 -0.56597,-1.80031 -0.90433,-2.94556 -0.33837,-1.14525 -0.72348,-1.83452 -0.93018,-2.50631 -0.20671,-0.6718 -0.10335,-0.62873 -0.20671,-0.10335 -0.10335,0.52537 -0.79237,1.57613 -1.03353,1.57613 -0.24115,0 -0.0793,-0.11945 -0.10335,-0.23255 -0.024,-0.1131 -0.14642,0.16364 0,-0.43925 0.14642,-0.60289 0.43925,-1.96371 0.43925,-2.04122 0,-0.0775 -0.1378,-0.24116 -0.23254,-0.12919 -0.0947,0.11196 -1.09457,2.40542 -1.80868,3.74655 -0.71411,1.34113 -0.80098,0.56844 -0.90434,0.56844 -0.10335,0 -0.0919,-0.0766 -0.12919,-0.20671 -0.0373,-0.13012 -0.24977,-0.21532 0,-0.56844 0.24977,-0.35313 0.9613,-3.09559 1.36943,-4.44418 0.40812,-1.34859 0.56844,-1.09381 0.56844,-1.36942 v -0.10336 c 0,-0.0861 -0.44786,-1.1541 -0.6718,-1.60197 -0.22393,-0.44786 -0.0603,0 -0.12919,0 -0.0689,0 -0.2067,0.22394 -0.2067,0.3359 0,0.11197 -0.0603,0 -0.23255,0 -0.17225,0 -1.1541,-3.25561 -1.47278,-4.88342 -0.31867,-1.6278 -0.12919,-0.55982 -0.12919,0 0,0.55983 -0.4523,4.07761 -1.57613,5.8136 -1.12383,1.73599 -1.56573,2.03357 -1.60197,2.71301 -0.0362,0.67944 -0.10335,0.534 -0.10335,0.80099 0,0.267 -0.11197,0.46508 0,0.80098 0.11196,0.3359 0.4912,0.47253 0.33589,1.13688 -0.1553,0.66435 -0.65438,3.20776 -1.60197,4.21164 -0.94758,1.00388 -1.25513,0.49661 -1.47277,1.57613 -0.21765,1.07952 -1.12827,2.04122 -1.36943,2.04122 -0.24116,0 0.0517,0.24116 0,-0.10335 -0.0517,-0.34451 -0.21687,-1.55112 -0.56844,-1.03353 -0.35157,0.51759 -1.72007,3.65465 -2.50631,5.4777 -0.78624,1.82305 -0.56844,1.34359 -0.67179,1.34359 -0.10336,0 -0.16556,0.067 -0.23255,0 -0.067,-0.067 -0.14642,0.43064 0,-0.3359 0.14642,-0.76653 1.2833,-4.71117 1.70532,-5.91695 0.42203,-1.20578 -0.0934,-0.54167 -0.10335,-0.6718 -0.01,-0.13013 -0.11196,0.39619 0,-0.10335 0.11197,-0.49954 0.3359,-1.56752 0.3359,-1.60197 0,-0.0344 0.18948,-0.10336 0,-0.3359 -0.18948,-0.23254 -0.56844,-0.92156 -0.56844,-1.03353 0,-0.11197 0.50288,-1.38142 0.56844,-1.80867 0.0656,-0.42725 -0.0131,-0.35702 0,-0.69763 0.0131,-0.34061 0.35117,-1.19234 0.10335,-1.34359 -0.24782,-0.15125 -0.21878,0.17355 -0.3359,0.2067 -0.11711,0.0332 -0.28413,0.0518 -0.33589,0 -0.0518,-0.0518 0,0.267 0,-0.10335 0,-0.37035 0.8252,-3.18934 1.47278,-5.58106 0.64757,-2.39172 0.8274,-2.79231 0.69763,-3.28145 -0.12977,-0.48914 -0.98262,0.74397 -0.56844,-1.03353 0.41417,-1.7775 1.38664,-5.88244 1.57613,-7.26054 0.18949,-1.3781 0.3462,-1.70181 0.23254,-1.93787 -0.11365,-0.23606 -0.33589,-0.95602 -0.33589,-1.13688 v -0.1292 c 0,-0.3359 0.4196,-1.92823 0.56844,-3.04891 0.14884,-1.12068 -0.12919,-1.86897 -0.12919,-2.17041 v -0.67179 c 0,-0.22394 0.0632,-0.39839 1.13688,-1.60197 1.0737,-1.20358 2.39004,-3.46318 2.6355,-4.08244 0.24546,-0.61926 0.21655,-0.58169 0.77515,-0.46509 0.55859,0.1166 0.85246,0.81916 1.13688,0.23254 0.28442,-0.58662 1.30913,-2.01538 1.60197,-2.17041 0.29283,-0.15503 0.36173,1.07659 0.46509,0.46509 0.10335,-0.61151 0.37174,-1.74451 0.43925,-1.83451 0.0675,-0.09 0.16364,-0.20671 0.23254,-0.20671 0.0689,0 0.20483,-0.10826 0.3359,0 0.13107,0.10826 0.17225,0.0603 0.12919,0.67179 -0.0431,0.6115 -0.12919,1.30052 -0.12919,2.04122 0,0.7407 1.06488,5.17269 1.60197,7.28638 0.53708,2.11369 -0.15462,1.43457 -0.23255,2.14458 -0.0779,0.71001 0.91295,2.60965 1.36943,3.41064 0.45648,0.80098 0.1378,0.69764 0,0.69764 -0.1378,0 -1.14078,-0.64281 -0.56844,0.67179 0.57234,1.3146 1.80868,4.53891 1.80868,5.24516 v 0.3359 c 0,0.1378 -0.49279,0.80734 -0.43925,1.36943 0.0535,0.56209 1.16068,-1.9602 2.27376,-3.87574 1.11308,-1.91554 4.01965,-4.32408 5.32268,-5.78776 1.30303,-1.46368 1.91294,-1.71612 3.87575,-4.10828 1.96281,-2.39216 2.23639,-3.00925 2.37107,-3.20345 0.13468,-0.19419 0.15399,-0.15606 0.2067,-0.36173 0.0527,-0.20567 0.0488,-0.69635 0.16111,-1.21489 0.11234,-0.51852 0.33589,-1.1455 0.33589,-1.70533 0,-0.55983 0.10333,-1.99451 0.10336,-2.71301 3e-5,-0.7185 -0.18261,-1.0501 -0.10336,-1.47278 0.0792,-0.42268 0.37035,-0.55122 0.43925,-0.56844 0.0689,-0.0172 -0.0912,-0.43393 -0.10335,-0.56844 -0.0121,-0.13451 0,0.38756 0,-0.23255 0,-0.62011 0.34553,-1.77906 1.60198,-2.40295 1.25645,-0.62389 1.99193,-1.77552 2.14458,-2.37712 0.15265,-0.6016 0.99047,-0.67179 1.26608,-0.67179 0.27561,0 -0.16365,-0.22393 0.10335,0 0.26699,0.22393 1.15686,1.10211 1.70532,0.77514 0.54846,-0.32697 0.90434,-0.90434 1.13689,-0.90434 0.23254,0 -0.24978,0.80099 0.10335,0.80099 0.35312,0 1.24358,-1.23211 1.49862,-2.04122 0.25504,-0.80911 0.57051,-0.42685 0.77514,-0.3359 z"
         style="font-size:52.9167px;font-family:'Another Danger - Demo';-inkscape-font-specification:'Another Danger - Demo';letter-spacing:39.6875px;fill:#000000;stroke-width:0.953195;paint-order:fill markers stroke"
         id="path9" />
      <path
         d="m 278.96184,108.25182 c 0.0759,-0.023 -0.009,0 0.10335,0 0.11197,0 0.38082,3.06413 0.41341,3.61735 0.0326,0.55322 0.0222,0.84458 2e-5,1.24019 0,2.53774 0.57492,-1.49741 0.62711,-0.22388 0.0522,1.27352 -0.59273,2.1785 -0.4204,3.22111 0.17233,1.04261 0.51676,4.38389 0.51676,5.06429 v 0.31006 c 0,0.68041 -0.61738,3.21307 -1.03353,4.44418 -0.41615,1.23111 -0.51786,2.47045 -0.41341,4.23747 0.10445,1.76702 0.51677,2.68717 0.51677,2.89388 v 0.20671 c 0,0.25838 -0.75793,1.70532 -1.13689,2.17041 -0.37896,0.46509 -0.0982,0.0452 -0.10335,0.62012 -0.005,0.57492 0.35735,2.02959 0.41341,2.79053 0.0561,0.76094 0,1.59336 0,1.757 0,0.16364 -0.0689,0.85265 -0.10335,1.03352 -0.0345,0.18086 0.34451,1.17133 0.20671,1.65365 -0.13781,0.48231 -1.43708,3.58713 -0.72347,5.58106 0.71361,1.99393 2.06705,1.42971 2.06705,1.757 0,0.32728 -0.41341,0.72347 0,0.72347 0.41342,0 1.24024,0.48231 1.24024,0.72347 0,0.2134 -0.41341,0.12112 -0.41341,0.41341 0,0.18948 0.89573,0.31006 1.34359,0.31006 0.44787,0 0.68849,-0.0239 0.93017,0 0.24168,0.0239 0.4174,-0.0179 0.51677,0.10335 0.0994,0.12121 0.53399,0.34452 0,0.41342 -0.53399,0.0689 -1.25763,0.46917 -2.99724,0.93017 -1.73961,0.461 -3.8778,0.76384 -4.03076,0.82682 -0.15296,0.063 -0.19809,0.34451 -0.20671,0.51677 -0.009,0.17225 -0.17225,0.86989 0,1.34359 0.17226,0.4737 0.51677,1.70532 0.51677,2.06706 0,0.36173 -0.18056,3.47437 -1.03353,5.89111 -0.85297,2.41674 -1.36924,2.58928 -1.44694,3.92742 -0.0777,1.33814 -0.45647,1.65364 -0.72347,1.65364 -0.26699,0 -0.31006,-0.89573 -0.31006,-1.34359 0,-0.44787 -0.0344,-0.22394 -0.20671,0 -0.17225,0.22393 -0.40818,1.89265 -0.93018,3.82406 -0.522,1.93141 -1.41248,3.89296 -1.55029,4.54753 -0.1378,0.65457 -0.24916,0.0609 -0.31006,0 -0.0609,-0.0609 0,0.45647 0,-0.20671 0,-0.66318 0.75296,-4.56159 1.03353,-6.20117 0.28057,-1.63958 -0.27577,-0.96238 -0.2067,-1.86035 0.0691,-0.89797 0.2067,-1.67949 0.2067,-1.96371 0,-0.28422 -0.61455,-0.61686 -0.72347,-1.86035 -0.10892,-1.24349 0.41341,-2.30822 0.41341,-2.99724 0,-0.68902 -0.1378,-1.87757 -0.2067,-2.27376 -0.0689,-0.39619 -0.49264,0.39801 -0.51677,0.41341 -0.0241,0.0154 -0.0779,0.0147 -0.10335,0 -0.0255,-0.0147 -0.10335,-0.22393 -0.10335,-0.51676 0,-0.29284 0.53575,-3.88072 0.51676,-5.68441 -0.019,-1.80369 0.19032,-0.24128 -0.82682,-0.10336 -1.01714,0.13792 -3.06613,0.41341 -3.20394,0.41341 -0.1378,0 0.12058,0.10335 0,-0.10335 -0.12058,-0.20671 -0.9474,-0.62012 -1.24024,-0.62012 -0.29283,0 0.58567,-0.13781 -0.10335,0 -0.68902,0.1378 -1.79804,0.43273 -2.06706,1.03353 -0.26902,0.6008 -0.23244,1.60738 -1.13688,2.68718 -0.90444,1.0798 -2.37666,2.19268 -2.48047,2.99723 -0.10381,0.80455 -0.60951,1.3798 -1.03353,1.65365 -0.42402,0.27385 -0.20671,-0.13781 -0.20671,-0.20671 v -0.62011 c 0,-0.18948 0.0994,-0.39556 0,-0.51677 -0.0994,-0.12121 -0.0948,-0.22694 -0.31006,0 -0.21527,0.22694 -2.39426,3.9068 -3.30729,5.16765 -0.91303,1.26085 -0.91295,1.51584 -1.03353,1.55029 -0.12058,0.0344 -0.0221,0.0666 -0.10335,0 -0.0812,-0.0666 -0.20671,-0.36173 -0.10336,-0.51676 0.10336,-0.15503 0.19511,-1.02341 1.03353,-2.37712 0.83842,-1.35371 1.50859,-3.10762 1.757,-4.34082 0.24841,-1.2332 0.84526,-1.30358 0.72347,-1.86035 -0.12179,-0.55677 -0.71424,-0.31403 -0.41341,-1.13689 0.30083,-0.82286 1.08581,-2.66642 0.93018,-2.89388 -0.15563,-0.22746 -1.80515,-0.72347 -2.27377,-0.72347 -0.46862,0 -0.87552,0.15481 -1.31312,0.33101 -0.4376,0.1762 -1.00118,0.49581 -1.33555,0.63058 -0.33438,0.13476 -0.93399,0.35904 -1.48544,0.382 -0.55145,0.0229 -2.00677,0 -2.06706,0 -0.0603,0 -1.16272,-0.55122 -1.65365,-0.82682 -0.49092,-0.27561 -2.18287,0.32871 -2.58382,0 -0.40095,-0.32871 -0.20168,-0.48414 -0.10335,-0.51677 0.0983,-0.0326 0.64596,-0.41342 0.72347,-0.62012 0.0775,-0.20671 -0.88713,-0.10335 -0.93018,-0.10335 -0.043,0 -0.70608,0.0689 -1.03353,0.10335 -0.32745,0.0344 -0.19895,-0.13826 -0.82682,-0.10335 -0.62787,0.0349 -1.95509,0.20671 -2.37711,0.20671 -0.42203,0 -1.52557,0.23142 -1.75699,0 -0.23143,-0.23142 0,-0.009 0,-0.20671 0,-0.1981 2.75285,-0.66984 5.58104,-1.13688 2.82819,-0.46704 2.95382,-1.06578 2.99723,-1.34359 0.0434,-0.27781 2.9376,-0.60153 3.10059,-0.62012 0.16299,-0.0186 0.29675,-0.17553 0.31006,-0.31006 0.0133,-0.13453 -0.17372,-0.20116 -0.20671,-0.31006 -0.033,-0.1089 -0.18408,-0.25747 0,-0.31005 0.18408,-0.0526 7.23799,-0.57363 8.26824,-0.82683 1.03025,-0.2532 0.84923,-1.2746 1.44694,-2.79053 0.59771,-1.51593 1.13688,-2.30821 1.13688,-2.58382 0,-0.27561 -0.51746,-0.0206 -0.2067,-1.34359 0.31076,-1.32294 2.99675,-6.95811 4.13411,-9.30176 1.13736,-2.34365 0.46379,-2.36135 0.82683,-3.514 0.36304,-1.15265 0.58541,-1.40917 1.03353,-2.37712 0.44812,-0.96795 1.04367,-2.73143 1.44694,-4.13411 0.40327,-1.40268 1.58701,-1.28624 2.17041,-1.86036 0.5834,-0.57412 0.83125,-0.48108 1.34359,-1.13688 0.51234,-0.6558 0.58906,-1.05387 1.44694,-2.99723 0.85788,-1.94336 1.40778,-3.89355 1.9637,-3.82406 0.55592,0.0695 0.63494,0.29353 0.93018,0.2067 0.29524,-0.0868 0.72347,-1.53307 0.72347,-2.17041 0,-0.63735 0.31006,-0.24977 0.41341,-0.10335 0.10336,0.14641 0.26735,1.16522 0.51677,1.65365 0.24942,0.48843 0.68902,-2.34267 0.82682,-3.514 0.13781,-1.17133 0.23413,-0.18372 0.31006,-0.20671 z m -7.95818,27.28517 c -0.0401,0.1034 -1.53947,5.81303 -1.9637,6.51124 -0.42423,0.69821 -1.86398,3.69772 -2.06706,4.13411 -0.20308,0.43639 -0.75206,1.36658 -0.41341,1.34359 0.33865,-0.023 3.45361,-0.52042 3.81009,-0.5886 0.70618,-0.23789 0.4274,-0.501 0.4274,-2.50142 0,-2.00042 0.10333,-4.21359 0.31004,-5.48827 0.20671,-1.27469 0,-2.89383 0,-3.20394 0,-0.31011 -0.0632,-0.31011 -0.10336,-0.20671 z"
         style="font-size:52.9167px;font-family:'Another Danger - Demo';-inkscape-font-specification:'Another Danger - Demo';letter-spacing:39.6875px;fill:#000000;stroke:none;stroke-width:0.953195;stroke-opacity:1;paint-order:fill markers stroke"
         id="path10" />
    </g>
    <text
       xml:space="preserve"
       style="font-size:27.7812px;font-family:'Another Danger - Demo';-inkscape-font-specification:'Another Danger - Demo';letter-spacing:6.61458px;fill:#000000;fill-opacity:1;stroke-width:1;paint-order:fill markers stroke;filter:url(#filter11)"
       x="145.98384"
       y="109.34961"
       id="text10"><tspan
         id="tspan10"
         style="font-style:normal;font-variant:normal;font-weight:normal;font-stretch:normal;font-size:27.7812px;font-family:Versa;-inkscape-font-specification:Versa;text-align:center;text-anchor:middle;fill:#000000;fill-opacity:1;stroke-width:1"
         x="149.29114"
         y="109.34961">TECHNOLOGIES</tspan></text>
    <g
       id="g6"
       transform="matrix(1.0491027,0,0,1.0491027,-66.13129,-100.33806)"
       style="stroke-width:0.953195">
      <path
         d="m 200.10314,112.21794 c 0.1065,-0.0295 0.31006,-0.49954 0.36174,0 0.0517,0.49954 0.97128,2.7265 1.62781,3.97909 0.65653,1.25259 0.49092,1.92925 0.49092,2.97139 0,1.04214 -0.1292,1.95769 -0.12919,2.60966 1e-5,0.65197 0.12919,0.94741 0.12919,1.83452 0,0.88711 -1.98093,5.57244 -2.9714,7.5706 -0.99047,1.99815 -0.25838,0.18087 0.23255,0 0.49092,-0.18087 3.05454,-1.81618 4.21163,-3.35897 1.15709,-1.54279 0.8952,-1.26399 1.49862,-1.73116 0.60342,-0.46717 1.3446,-1.11093 1.73116,-1.60197 0.38656,-0.49104 0.91295,-1.52446 1.36943,-1.86036 0.45647,-0.3359 0.30451,-0.0192 0.49092,0 0.18641,0.0192 0.44786,0.3273 0.62012,0.1292 0.17225,-0.19809 0.74069,-0.93879 0.85266,-1.11105 0.11196,-0.17226 0,-0.37035 0,-0.74931 0,-0.37896 0.84924,-1.30912 1.36943,-1.73116 0.52019,-0.42204 1.03451,-0.9942 1.62781,-1.757 0.5933,-0.7628 0.36244,-1.4795 1.83451,-1.93787 1.47207,-0.45837 4.3236,-0.25838 5.58106,-0.25838 1.25746,0 1.74717,1.17378 2.24793,1.34359 0.50076,0.16981 0.20674,-0.14834 1.26252,-0.43316 1.05578,-0.28482 -1.1943,1.41595 0.0811,1.28582 1.27536,-0.13013 2.69579,-1.34359 2.84221,-1.34359 0.14641,0 0.0257,-0.10353 0.12919,0 0.10353,0.10353 0.1378,0.74931 0,0.74931 -0.13781,0 -0.92627,0.85724 -2.37712,2.35128 -1.45085,1.49404 -1.80633,2.23532 -2.58382,3.22978 -0.77749,0.99446 -3.11014,1.78523 -3.82406,1.96371 -0.71392,0.17848 -0.99908,1.59335 -1.36943,2.24792 -0.37035,0.65457 0.0933,0.49853 0.10336,0.62012 0.0101,0.12159 0.10335,-0.35313 0,0.10335 -0.10336,0.45648 -0.8017,2.33441 -2.35128,2.99724 -1.54958,0.66283 -4.66812,3.04029 -5.78777,4.41833 -1.82677,2.24832 0.91874,-1.29912 -1.26607,-0.2067 -0.63803,0.31902 -1.27711,1.68682 -1.60197,2.0929 -0.32486,0.40608 -1.31194,1.28982 -2.22209,2.09289 -0.91015,0.80307 -2.17888,1.19708 -3.10058,1.86036 -0.9217,0.66328 -1.98955,0.65813 -2.11794,1.11104 -0.1284,0.45291 1.05454,0.38191 1.49782,0.8785 0.55382,0.66632 3.96116,0.719 6.56291,1.36943 2.60175,0.65043 3.99104,1.77737 5.45187,2.35127 1.46083,0.5739 0.62821,1.12722 1.36942,1.73117 0.74121,0.60395 1.97843,0.76554 2.94556,0.85266 0.96713,0.0871 1.87326,-0.10336 1.98954,-0.10336 h 0.25839 c 0.0856,0 3.91727,1.66997 4.96094,2.94556 1.04367,1.27559 0.65456,1.62781 1.60197,2.11874 0.94741,0.49093 1.82818,1.37215 1.73116,1.73116 -0.097,0.35901 -0.0503,0.21569 -0.36174,0.12919 -0.31143,-0.0865 -1.03353,-0.25838 -1.13688,-0.25838 -0.10336,0 -1.83452,-0.95602 0,0.38757 1.83452,1.34359 6.6232,4.47863 7.18303,4.70256 0.55983,0.22393 0.33547,0.41902 0.38757,0.59428 0.0521,0.17526 0.11056,0.25271 0,0.38757 -0.11056,0.13486 -0.4767,0.11241 -0.64595,0.12919 -0.16925,0.0168 -0.36174,0.45647 -0.36174,0 0,-0.45648 -4.48596,-2.65516 -7.31222,-3.82405 -2.82626,-1.16889 -1.44694,-1.0077 -1.73116,-1.0077 -0.28422,0 -0.47404,0.50098 -1.47278,0.10336 -0.99874,-0.39762 -3.22116,-1.38667 -4.08244,-1.47278 -0.86128,-0.0861 -0.0292,0.0381 0,0.12919 0.0292,0.0911 0.2226,0.25017 0.25838,0.36173 0.0358,0.11156 0.0457,0.2127 0,0.25839 -0.0457,0.0457 0.0689,0 -0.12919,0 -0.1981,0 -1.93504,-0.73961 -4.83175,-1.86036 -2.89671,-1.12075 -4.94371,-1.49861 -5.19348,-1.49861 -0.24977,0 -0.10335,-0.12058 -0.25838,0 -0.15503,0.12057 -0.46509,0.36173 -0.85267,0.36173 -0.38757,0 -4.04439,-1.45949 -5.96863,-2.19625 -1.92424,-0.73676 -2.67828,-0.86387 -4.31498,-1.24023 -1.6367,-0.37636 -1.50723,0.12919 -1.73116,0.12919 -0.22393,0 0.2756,-0.25838 -0.25839,0 -0.53399,0.25838 -1.60197,2.85943 -1.60197,4.18579 0,1.32636 0.74931,0.73039 0.74931,2.11874 0,1.38835 -0.32637,3.50696 -1.00769,4.83175 -0.68132,1.32479 -1.50641,2.87373 -1.60197,4.21163 -0.0956,1.3379 -0.22198,1.33293 -0.49093,0.8785 -0.26895,-0.45443 -0.76652,-1.26608 -0.87849,-1.26608 -0.11196,0 -1.43833,7.20026 -1.47278,7.57061 -0.0344,0.37034 -0.29284,1.11104 -0.38758,1.11104 -0.0947,0 -0.2127,0.0457 -0.25838,0 -0.0457,-0.0457 -0.0861,1.49 0,-0.12919 0.0861,-1.6192 0.34459,-4.62391 0.25838,-5.8136 -0.0862,-1.18969 -0.25838,-2.93695 -0.25838,-3.10059 0,-0.16364 0.32729,-1.06798 0,-1.47278 -0.32728,-0.4048 -1.06806,-0.78292 -0.98185,-1.62781 0.0862,-0.84489 0.25838,-3.01446 0.25838,-3.46232 v -0.25838 c 0,-0.20671 -0.14075,-0.75892 -0.36174,-0.74931 -0.22099,0.01 -0.40479,0.15503 -0.49092,0.15503 -0.0861,0 -0.13588,-0.18924 -0.15503,-0.25839 -0.0191,-0.0692 -0.0861,0.89572 0,-0.12919 0.0861,-1.02492 0.92935,-5.66344 1.26607,-7.18302 0.33672,-1.51958 0.14825,-0.81901 0.10335,-1.11105 -0.0449,-0.29204 0.0537,-1.03566 -1.21439,-0.74931 -1.26811,0.28635 -3.14365,1.81729 -3.61735,1.98955 -0.4737,0.17225 -0.0873,-0.17479 -0.10336,-0.25839 -0.0161,-0.0836 -0.19809,-0.21534 0,-0.23254 0.1981,-0.0172 2.61652,-1.72299 2.71302,-2.35128 0.0965,-0.62829 -0.19658,-1.90392 -0.62012,-2.11873 -0.42354,-0.21481 -1.02491,0.39619 -1.11104,0 -0.0861,-0.39619 -0.41634,-1.30433 -0.25839,-1.47278 0.15795,-0.16845 0.38758,-0.38758 0.38758,-0.77515 0,-0.38758 -0.0761,-0.83557 -0.64596,-0.72347 -0.56985,0.1121 -1.11966,0.51676 -1.2144,0.51676 -0.0947,0 -0.0947,-0.7407 0,-0.8785 0.0947,-0.1378 0.42203,-0.66092 0.49093,-1.00769 0.0689,-0.34677 -0.49093,-0.0951 -1.20104,-0.34677 -0.71011,-0.25171 -0.58429,-0.97067 0.80537,-1.09986 1.38967,-0.12919 1.22462,-0.64626 1.86845,-0.64626 0.64383,0 1.57613,0.0861 1.98954,0.12919 0.41341,0.043 0.46509,-0.36174 0.74931,-0.36174 0.28422,0 1.93163,0.56869 2.86805,0.23255 0.93642,-0.33614 0.78782,-2.85748 1.11104,-4.83175 0.32322,-1.97427 -0.57841,-0.82192 -0.15503,-2.35128 0.42338,-1.52936 1.26607,-4.22025 1.26607,-5.71025 0,-1.49001 0.38524,-2.70319 0.98186,-2.94556 0.59662,-0.24237 0.80622,-1.41555 1.47278,-1.98954 0.66656,-0.57399 1.17822,-0.21141 1.6278,-1.24024 0.44958,-1.02883 2.32545,-2.11873 3.10059,-2.11873 0.77515,0 0.0391,0.0701 0.10335,-0.23255 0.0642,-0.30267 -0.24665,-1.35532 0,-1.60197 0.24665,-0.24665 0.49093,-0.14642 0.49093,0 0,0.14642 0.58567,0.71486 0.8785,0.85266 0.29284,0.1378 0,-0.53398 0,-0.7493 0,-0.21532 -0.17224,-2.17903 -0.25838,-2.94556 -0.0861,-0.76654 0.15188,-0.12553 0.25838,-0.15503 z"
         style="font-size:52.9167px;font-family:'Another Danger - Demo';-inkscape-font-specification:'Another Danger - Demo';letter-spacing:39.6875px;fill:#f9f9f9;stroke-width:0.953195;paint-order:fill markers stroke"
         id="path1-82" />
      <path
         d="m 118.04663,110.42218 c 0.20463,0.091 0.44348,-1.07733 0.12919,0.20671 -0.31429,1.28404 -1.03353,4.1255 -1.03353,4.34082 0,0.21532 0.39619,0.70624 0.1292,1.57613 -0.267,0.86989 -0.80099,2.30822 -0.80099,3.3073 0,0.99908 -0.6029,2.95417 -0.90434,3.28145 -0.30145,0.32729 -0.26699,-0.0861 -0.23254,0.46509 0.0345,0.55122 0.10335,1.42111 0.10335,1.80868 0,0.38758 -2.04531,6.42855 -3.07475,9.56014 -1.02944,3.13159 -1.3544,3.15649 -2.04123,4.54753 -0.68683,1.39104 -0.47943,0.46932 -1.13688,1.70532 -0.65745,1.236 -1.09384,4.49585 -1.24025,5.58106 -0.14642,1.08521 0.92157,-0.64596 0.23255,1.34359 -0.68903,1.98955 -2.44571,7.67229 -2.63551,8.65581 -0.1898,0.98352 -0.78458,0.008 -1.70534,2.94556 -0.92076,2.93765 -1.38666,6.24424 -1.57614,6.38204 -0.18948,0.1378 -0.0947,0.37896 -0.12919,0 -0.0344,-0.37896 -0.10336,-1.51584 -0.10336,-1.70533 V 163.959 c 0,-0.0986 -0.46509,-0.90377 -0.46509,0.23254 0,1.13631 -1.772175,6.95391 -2.842207,9.6635 -1.070032,2.70959 -0.637344,1.47278 -0.775147,1.47278 -0.137804,0 -0.08656,0.0426 -0.129191,0 -0.04263,-0.0426 0,0.32728 0,-0.23255 0,-0.55983 1.223011,-5.71025 1.834518,-7.72563 0.611507,-2.01538 -0.146415,-1.63642 0,-2.73885 0.146415,-1.10243 0.439247,-3.83267 0.439247,-4.18579 0,-0.35312 -0.82554,0.76866 -0.439247,-2.06706 0.386297,-2.83572 1.576137,-7.9754 1.576137,-8.73332 0,-0.75792 0.0274,-0.10178 0,-0.12919 -0.0274,-0.0274 0.01,-0.0817 -0.10336,0 -0.11338,0.0817 -0.14142,0.55756 -0.23254,0.69763 -0.0911,0.14007 -0.46509,0.12735 -0.46509,0 v -0.12919 c 0,-0.35312 0.75792,-3.45371 1.13688,-4.65089 0.37896,-1.19717 0.59428,-0.77515 -0.10335,0 -0.69763,0.77515 -3.246703,3.0324 -3.87574,3.6432 -0.629037,0.6108 -1.57989,2.10396 -2.609661,3.41064 -1.029771,1.30668 -0.981853,0.90434 -1.240235,0.90434 -0.258383,0 -0.232544,0.11196 -0.232544,0 0,-0.11196 -0.223932,-0.3359 -0.335897,-0.3359 -0.111966,0 -0.301446,-0.95602 0,0.43925 0.301446,1.39527 0.904338,5.49493 0.904338,6.1495 0,0.65456 -0.174205,0.091 -0.232544,0.10336 -0.05834,0.0124 -0.03445,0.009 -0.103353,0 -0.0689,-0.009 -0.565971,-1.80031 -0.904338,-2.94556 -0.338367,-1.14525 -0.723471,-1.83452 -0.930177,-2.50631 -0.206706,-0.6718 -0.103352,-0.62873 -0.206705,-0.10335 -0.103353,0.52537 -0.792373,1.57613 -1.03353,1.57613 -0.241157,0 -0.07935,-0.11945 -0.103353,-0.23255 -0.024,-0.1131 -0.146416,0.16364 0,-0.43925 0.146416,-0.60289 0.43925,-1.96371 0.43925,-2.04122 0,-0.0775 -0.137804,-0.24116 -0.232544,-0.12919 -0.09474,0.11196 -1.094567,2.40542 -1.808676,3.74655 -0.714109,1.34113 -0.800985,0.56844 -0.904338,0.56844 -0.103353,0 -0.09187,-0.0766 -0.129191,-0.20671 -0.03732,-0.13012 -0.24977,-0.21532 0,-0.56844 0.249769,-0.35313 0.9613,-3.09559 1.369426,-4.44418 0.408126,-1.34859 0.568441,-1.09381 0.568441,-1.36942 v -0.10336 c 0,-0.0861 -0.447863,-1.1541 -0.671794,-1.60197 -0.223932,-0.44786 -0.06029,0 -0.129191,0 -0.0689,0 -0.206706,0.22394 -0.206706,0.3359 0,0.11197 -0.06029,0 -0.232544,0 -0.172255,0 -1.154108,-3.25561 -1.472779,-4.88342 -0.318672,-1.6278 -0.129191,-0.55982 -0.129191,0 0,0.55983 -0.452303,4.07761 -1.576132,5.8136 -1.123829,1.73599 -1.565735,2.03357 -1.601971,2.71301 -0.03624,0.67944 -0.103353,0.534 -0.103353,0.80099 0,0.267 -0.111966,0.46508 0,0.80098 0.111965,0.3359 0.491201,0.47253 0.335897,1.13688 -0.155304,0.66435 -0.654381,3.20776 -1.60197,4.21164 -0.947589,1.00388 -1.255135,0.49661 -1.472779,1.57613 -0.217644,1.07952 -1.12827,2.04122 -1.369427,2.04122 -0.241157,0 0.05168,0.24116 0,-0.10335 -0.05168,-0.34451 -0.216872,-1.55112 -0.568441,-1.03353 -0.351569,0.51759 -1.720064,3.65465 -2.506308,5.4777 -0.786244,1.82305 -0.568441,1.34359 -0.671794,1.34359 -0.103353,0 -0.165552,0.067 -0.232544,0 -0.06699,-0.067 -0.146417,0.43064 0,-0.3359 0.146416,-0.76653 1.283298,-4.71117 1.705323,-5.91695 0.422024,-1.20578 -0.0934,-0.54167 -0.103353,-0.6718 -0.01,-0.13013 -0.111966,0.39619 0,-0.10335 0.111965,-0.49954 0.335897,-1.56752 0.335897,-1.60197 0,-0.0344 0.18948,-0.10336 0,-0.3359 -0.189481,-0.23254 -0.568441,-0.92156 -0.568441,-1.03353 0,-0.11197 0.502882,-1.38142 0.568441,-1.80867 0.06556,-0.42725 -0.01308,-0.35702 0,-0.69763 0.01308,-0.34061 0.351172,-1.19234 0.103353,-1.34359 -0.247819,-0.15125 -0.218781,0.17355 -0.335897,0.2067 -0.117116,0.0332 -0.284131,0.0518 -0.335897,0 -0.05177,-0.0518 0,0.267 0,-0.10335 0,-0.37035 0.825201,-3.18934 1.472779,-5.58106 0.647578,-2.39172 0.827403,-2.79231 0.697632,-3.28145 -0.129771,-0.48914 -0.982617,0.74397 -0.568441,-1.03353 0.414176,-1.7775 1.386645,-5.88244 1.576133,-7.26054 0.189488,-1.3781 0.346202,-1.70181 0.232544,-1.93787 -0.113658,-0.23606 -0.335897,-0.95602 -0.335897,-1.13688 v -0.1292 c 0,-0.3359 0.419603,-1.92823 0.568441,-3.04891 0.148838,-1.12068 -0.129191,-1.86897 -0.129191,-2.17041 v -0.67179 c 0,-0.22394 0.06318,-0.39839 1.136882,-1.60197 1.073702,-1.20358 2.390037,-3.46318 2.635499,-4.08244 0.245462,-0.61926 0.21655,-0.58169 0.775147,-0.46509 0.558597,0.1166 0.852463,0.81916 1.136883,0.23254 0.28442,-0.58662 1.309136,-2.01538 1.60197,-2.17041 0.292833,-0.15503 0.361735,1.07659 0.465088,0.46509 0.103353,-0.61151 0.371747,-1.74451 0.43925,-1.83451 0.0675,-0.09 0.163642,-0.20671 0.232544,-0.20671 0.0689,0 0.204829,-0.10826 0.335897,0 0.131068,0.10826 0.172256,0.0603 0.129191,0.67179 -0.04306,0.6115 -0.129191,1.30052 -0.129191,2.04122 0,0.7407 1.064884,5.17269 1.60197,7.28638 0.537086,2.11369 -0.154614,1.43457 -0.232544,2.14458 -0.07793,0.71001 0.912951,2.60965 1.369427,3.41064 0.456475,0.80098 0.137804,0.69764 0,0.69764 -0.137804,0 -1.140782,-0.64281 -0.568441,0.67179 0.572341,1.3146 1.808676,4.53891 1.808676,5.24516 v 0.3359 c 0,0.1378 -0.492782,0.80734 -0.43925,1.36943 0.05353,0.56209 1.160681,-1.9602 2.273764,-3.87574 1.113083,-1.91554 4.019647,-4.32408 5.32268,-5.78776 1.30303,-1.46368 1.91294,-1.71612 3.87575,-4.10828 1.96281,-2.39216 2.23639,-3.00925 2.37107,-3.20345 0.13468,-0.19419 0.15399,-0.15606 0.2067,-0.36173 0.0527,-0.20567 0.0488,-0.69635 0.16111,-1.21489 0.11234,-0.51852 0.33589,-1.1455 0.33589,-1.70533 0,-0.55983 0.10333,-1.99451 0.10336,-2.71301 3e-5,-0.7185 -0.18261,-1.0501 -0.10336,-1.47278 0.0792,-0.42268 0.37035,-0.55122 0.43925,-0.56844 0.0689,-0.0172 -0.0912,-0.43393 -0.10335,-0.56844 -0.0121,-0.13451 0,0.38756 0,-0.23255 0,-0.62011 0.34553,-1.77906 1.60198,-2.40295 1.25645,-0.62389 1.99193,-1.77552 2.14458,-2.37712 0.15265,-0.6016 0.99047,-0.67179 1.26608,-0.67179 0.27561,0 -0.16365,-0.22393 0.10335,0 0.26699,0.22393 1.15686,1.10211 1.70532,0.77514 0.54846,-0.32697 0.90434,-0.90434 1.13689,-0.90434 0.23254,0 -0.24978,0.80099 0.10335,0.80099 0.35312,0 1.24358,-1.23211 1.49862,-2.04122 0.25504,-0.80911 0.57051,-0.42685 0.77514,-0.3359 z"
         style="font-size:52.9167px;font-family:'Another Danger - Demo';-inkscape-font-specification:'Another Danger - Demo';letter-spacing:39.6875px;fill:#ffffff;stroke-width:0.953195;paint-order:fill markers stroke"
         id="path1" />
      <path
         d="m 137.76759,108.25177 c 0.0759,-0.023 -0.009,0 0.10335,0 0.11197,0 0.38082,3.06413 0.41341,3.61735 0.0326,0.55322 0.0222,0.84458 2e-5,1.24019 0,2.53774 0.57492,-1.49741 0.62711,-0.22388 0.0522,1.27352 -0.59273,2.1785 -0.4204,3.22111 0.17233,1.04261 0.51676,4.38389 0.51676,5.06429 v 0.31006 c 0,0.68041 -0.61738,3.21307 -1.03353,4.44418 -0.41615,1.23111 -0.51786,2.47045 -0.41341,4.23747 0.10445,1.76702 0.51677,2.68717 0.51677,2.89388 v 0.20671 c 0,0.25838 -0.75793,1.70532 -1.13689,2.17041 -0.37896,0.46509 -0.0982,0.0452 -0.10335,0.62012 -0.005,0.57492 0.35735,2.02959 0.41341,2.79053 0.0561,0.76094 0,1.59336 0,1.757 0,0.16364 -0.0689,0.85265 -0.10335,1.03352 -0.0345,0.18086 0.34451,1.17133 0.20671,1.65365 -0.13781,0.48231 -1.43708,3.58713 -0.72347,5.58106 0.71361,1.99393 2.06705,1.42971 2.06705,1.757 0,0.32728 -0.41341,0.72347 0,0.72347 0.41342,0 1.24024,0.48231 1.24024,0.72347 0,0.2134 -0.41341,0.12112 -0.41341,0.41341 0,0.18948 0.89573,0.31006 1.34359,0.31006 0.44787,0 0.68849,-0.0239 0.93017,0 0.24168,0.0239 0.4174,-0.0179 0.51677,0.10335 0.0994,0.12121 0.53399,0.34452 0,0.41342 -0.53399,0.0689 -1.25763,0.46917 -2.99724,0.93017 -1.73961,0.461 -3.8778,0.76384 -4.03076,0.82682 -0.15296,0.063 -0.19809,0.34451 -0.20671,0.51677 -0.009,0.17225 -0.17225,0.86989 0,1.34359 0.17226,0.4737 0.51677,1.70532 0.51677,2.06706 0,0.36173 -0.18056,3.47437 -1.03353,5.89111 -0.85297,2.41674 -1.36924,2.58928 -1.44694,3.92742 -0.0777,1.33814 -0.45647,1.65364 -0.72347,1.65364 -0.26699,0 -0.31006,-0.89573 -0.31006,-1.34359 0,-0.44787 -0.0344,-0.22394 -0.20671,0 -0.17225,0.22393 -0.40818,1.89265 -0.93018,3.82406 -0.522,1.93141 -1.41248,3.89296 -1.55029,4.54753 -0.1378,0.65457 -0.24916,0.0609 -0.31006,0 -0.0609,-0.0609 0,0.45647 0,-0.20671 0,-0.66318 0.75296,-4.56159 1.03353,-6.20117 0.28057,-1.63958 -0.27577,-0.96238 -0.2067,-1.86035 0.0691,-0.89797 0.2067,-1.67949 0.2067,-1.96371 0,-0.28422 -0.61455,-0.61686 -0.72347,-1.86035 -0.10892,-1.24349 0.41341,-2.30822 0.41341,-2.99724 0,-0.68902 -0.1378,-1.87757 -0.2067,-2.27376 -0.0689,-0.39619 -0.49264,0.39801 -0.51677,0.41341 -0.0241,0.0154 -0.0779,0.0147 -0.10335,0 -0.0255,-0.0147 -0.10335,-0.22393 -0.10335,-0.51676 0,-0.29284 0.53575,-3.88072 0.51676,-5.68441 -0.019,-1.80369 0.19032,-0.24128 -0.82682,-0.10336 -1.01714,0.13792 -3.06613,0.41341 -3.20394,0.41341 -0.1378,0 0.12058,0.10335 0,-0.10335 -0.12058,-0.20671 -0.9474,-0.62012 -1.24024,-0.62012 -0.29283,0 0.58567,-0.13781 -0.10335,0 -0.68902,0.1378 -1.79804,0.43273 -2.06706,1.03353 -0.26902,0.6008 -0.23244,1.60738 -1.13688,2.68718 -0.90444,1.0798 -2.37666,2.19268 -2.48047,2.99723 -0.10381,0.80455 -0.60951,1.3798 -1.03353,1.65365 -0.42402,0.27385 -0.20671,-0.13781 -0.20671,-0.20671 v -0.62011 c 0,-0.18948 0.0994,-0.39556 0,-0.51677 -0.0994,-0.12121 -0.0948,-0.22694 -0.31006,0 -0.21527,0.22694 -2.39426,3.9068 -3.30729,5.16765 -0.91303,1.26085 -0.91295,1.51584 -1.03353,1.55029 -0.12058,0.0344 -0.0221,0.0666 -0.10335,0 -0.0812,-0.0666 -0.20671,-0.36173 -0.10336,-0.51676 0.10336,-0.15503 0.19511,-1.02341 1.03353,-2.37712 0.83842,-1.35371 1.50859,-3.10762 1.757,-4.34082 0.24841,-1.2332 0.84526,-1.30358 0.72347,-1.86035 -0.12179,-0.55677 -0.71424,-0.31403 -0.41341,-1.13689 0.30083,-0.82286 1.08581,-2.66642 0.93018,-2.89388 -0.15563,-0.22746 -1.80515,-0.72347 -2.27377,-0.72347 -0.46862,0 -0.87552,0.15481 -1.31312,0.33101 -0.4376,0.1762 -1.00118,0.49581 -1.33555,0.63058 -0.33438,0.13476 -0.93399,0.35904 -1.48544,0.382 -0.55145,0.0229 -2.00677,0 -2.06706,0 -0.0603,0 -1.16272,-0.55122 -1.65365,-0.82682 -0.49092,-0.27561 -2.18287,0.32871 -2.58382,0 -0.40095,-0.32871 -0.20168,-0.48414 -0.10335,-0.51677 0.0983,-0.0326 0.64596,-0.41342 0.72347,-0.62012 0.0775,-0.20671 -0.88713,-0.10335 -0.93018,-0.10335 -0.043,0 -0.70608,0.0689 -1.03353,0.10335 -0.32745,0.0344 -0.19895,-0.13826 -0.82682,-0.10335 -0.62787,0.0349 -1.95509,0.20671 -2.377114,0.20671 -0.422023,0 -1.525564,0.23142 -1.756988,0 -0.231424,-0.23142 0,-0.009 0,-0.20671 0,-0.1981 2.752852,-0.66984 5.581042,-1.13688 2.82819,-0.46704 2.95382,-1.06578 2.99723,-1.34359 0.0434,-0.27781 2.9376,-0.60153 3.10059,-0.62012 0.16299,-0.0186 0.29675,-0.17553 0.31006,-0.31006 0.0133,-0.13453 -0.17372,-0.20116 -0.20671,-0.31006 -0.033,-0.1089 -0.18408,-0.25747 0,-0.31005 0.18408,-0.0526 7.23799,-0.57363 8.26824,-0.82683 1.03025,-0.2532 0.84923,-1.2746 1.44694,-2.79053 0.59771,-1.51593 1.13688,-2.30821 1.13688,-2.58382 0,-0.27561 -0.51746,-0.0206 -0.2067,-1.34359 0.31076,-1.32294 2.99675,-6.95811 4.13411,-9.30176 1.13736,-2.34365 0.46379,-2.36135 0.82683,-3.514 0.36304,-1.15265 0.58541,-1.40917 1.03353,-2.37712 0.44812,-0.96795 1.04367,-2.73143 1.44694,-4.13411 0.40327,-1.40268 1.58701,-1.28624 2.17041,-1.86036 0.5834,-0.57412 0.83125,-0.48108 1.34359,-1.13688 0.51234,-0.6558 0.58906,-1.05387 1.44694,-2.99723 0.85788,-1.94336 1.40778,-3.89355 1.9637,-3.82406 0.55592,0.0695 0.63494,0.29353 0.93018,0.2067 0.29524,-0.0868 0.72347,-1.53307 0.72347,-2.17041 0,-0.63735 0.31006,-0.24977 0.41341,-0.10335 0.10336,0.14641 0.26735,1.16522 0.51677,1.65365 0.24942,0.48843 0.68902,-2.34267 0.82682,-3.514 0.13781,-1.17133 0.23413,-0.18372 0.31006,-0.20671 z m -7.95818,27.28517 c -0.0401,0.1034 -1.53947,5.81303 -1.9637,6.51124 -0.42423,0.69821 -1.86398,3.69772 -2.06706,4.13411 -0.20308,0.43639 -0.75206,1.36658 -0.41341,1.34359 0.33865,-0.023 3.45361,-0.52042 3.81009,-0.5886 0.70618,-0.23789 0.4274,-0.501 0.4274,-2.50142 0,-2.00042 0.10333,-4.21359 0.31004,-5.48827 0.20671,-1.27469 0,-2.89383 0,-3.20394 0,-0.31011 -0.0632,-0.31011 -0.10336,-0.20671 z"
         style="font-size:52.9167px;font-family:'Another Danger - Demo';-inkscape-font-specification:'Another Danger - Demo';letter-spacing:39.6875px;fill:url(#linearGradient16);stroke:none;stroke-width:0.953195;stroke-opacity:1;paint-order:fill markers stroke"
         id="path1-7" />
      <path
         d="m 162.69049,115.40896 c 0.44786,0.0775 2.52724,-0.002 5.01261,0.3359 2.48537,0.33773 4.38032,1.04842 6.6921,2.55798 2.31178,1.50956 4.01037,3.52832 4.26331,3.95325 0.25294,0.42493 0.34621,0.36456 0.95602,0.93018 0.60981,0.56562 1.223,0.93873 1.60197,2.45463 0.37897,1.5159 0.72347,2.22209 0.72347,3.59151 0,1.36942 -3.25562,7.60506 -4.88343,9.74102 -1.62781,2.13596 -5.15903,4.52169 -5.21932,4.65088 -0.0603,0.12919 -1.44029,0.76928 -2.19625,1.29191 -0.75596,0.52263 -1.93348,1.17819 -3.04891,1.62781 -1.11543,0.44962 -0.94831,-0.0668 -0.36174,0.3359 0.58657,0.40272 3.34208,2.67164 4.49586,3.48816 1.15378,0.81652 0.70976,0.43525 0.98185,0.69763 0.27209,0.26238 1.02862,1.37335 1.47278,2.0929 0.44416,0.71955 0.69224,1.10565 1.31775,1.73116 0.62551,0.62551 1.12496,0.54351 2.19625,0.82682 1.07129,0.28331 1.72035,0.71052 2.06706,1.39527 0.34671,0.68475 1.21865,0.98502 1.70532,1.6278 0.48667,0.64278 0.21478,0.82828 0.12919,0.90434 -0.0856,0.0761 -0.31867,0.12919 -0.36173,0.12919 -0.0431,0 -0.0258,-0.0172 0,0.10336 0.0259,0.12057 1.48999,1.60196 2.19624,2.22208 0.70624,0.62011 0,0.16365 0,0.23255 0,0.0689 -0.63454,-0.093 -1.11104,0.3359 -0.4765,0.42887 0.87774,1.09664 1.34359,1.52445 0.46585,0.42781 0.94037,0.86837 1.70532,1.73116 0.76495,0.86279 0.54757,1.41352 0.85266,1.52446 0.30509,0.11094 1.06798,0.77514 1.34359,1.16272 0.2756,0.38757 -0.62012,0.0947 -0.62012,0 0,-0.0947 -0.85846,-0.52324 -2.66133,-2.22209 -2.29466,-2.16227 -2.93065,-1.99574 -7.31222,-4.75423 -0.62015,-0.61153 -1.29916,-0.62895 -1.70533,-0.82683 -0.40617,-0.19788 -0.15502,-0.33589 -0.23254,-0.33589 -0.0775,0 -0.048,-0.0617 -0.12919,0 -0.0812,0.0617 -0.0171,0.37992 -0.12919,0.46508 -0.11205,0.0852 0.0689,0.59427 -0.36174,0 -0.43064,-0.59428 -3.48129,-3.08823 -4.98678,-4.28914 -1.50549,-1.20091 -1.5599,-0.82213 -2.81636,-1.05937 -1.25646,-0.23724 -2.31527,-1.67616 -2.79053,-2.19625 -0.47526,-0.52009 -0.96054,-0.61224 -1.47278,-0.93018 -0.51224,-0.31794 -1.76267,-1.32417 -3.28146,-2.45463 -1.51879,-1.13046 -2.04122,-0.93017 -2.2996,-0.93017 -0.25839,0 -0.20672,-0.043 -0.36174,0 -0.15503,0.043 -0.9265,1.60696 -1.47277,2.45463 -0.54627,0.84767 -0.49093,1.24023 -0.49093,1.86035 0,0.62011 -0.0538,0.57626 0,0.93018 0.0538,0.35392 0.32865,0.94505 0.36173,1.16272 0.0331,0.21767 0,-0.28423 0,0.10335 0,0.38757 -1.23659,3.59755 -2.06705,4.88343 -0.83046,1.28588 -0.12318,-1.49217 -0.72347,-0.23255 -0.60029,1.25962 -1.16474,3.83217 -1.47278,3.59152 -0.30804,-0.24065 -0.45648,-0.69764 -0.72347,-0.69764 -0.26699,0 -0.62012,0.0861 -0.62012,0.59428 0,0.50815 -1.34917,2.37369 -2.4288,4.28915 -1.07963,1.91546 -0.89572,2.32544 -0.95601,2.32544 -0.0603,0 -0.12919,-0.35313 -0.12919,-0.46509 0,-0.11197 1.61919,-4.29776 2.42879,-6.27869 1.28862,-3.15305 -1.3706,0.58228 0,-3.02307 0.85822,-2.25755 -0.0876,-1.08196 -0.23254,-1.33294 -0.14489,-0.25098 0.43063,-3.29211 0.59428,-4.68737 0.16364,-1.39527 -0.13209,0.082 -0.23255,0.10335 -0.10046,0.0213 -0.29169,0.07 -0.36173,0 -0.07,-0.07 -0.17226,0.57706 0,-0.23254 0.17225,-0.8096 1.61919,-5.37435 2.17041,-6.84713 0.55121,-1.47278 0.62011,-1.4814 0.25838,-1.62781 -0.36174,-0.14642 -1.73978,-1.1455 -2.06706,-1.49862 -0.32729,-0.35313 0.0864,-0.55497 0.10336,-0.82682 0.0169,-0.27185 -0.0446,-0.62884 0,-0.80099 0.0446,-0.17215 0.026,-0.20642 -0.0363,-0.27392 -0.0623,-0.0675 -2.55646,-0.71266 -2.49583,-0.78544 0.0606,-0.0728 -0.0693,-0.10333 0.36173,-0.10336 0.43107,-3e-5 1.48139,0.10336 1.70533,0.10336 h 0.46509 c 0.0603,0 1.54871,0.16595 0.38757,-0.3359 -1.16114,-0.50185 -4.42696,-1.87758 -5.01262,-2.32544 -0.58567,-0.44786 -0.21531,-0.23255 0.38758,0 0.60289,0.23254 4.03074,0.59517 4.13409,0.60108 0.49491,-0.0492 0.55333,-0.48613 0.49095,-0.83362 -0.0156,-0.17311 0,-0.15502 0,-0.46508 0,-0.31006 0.8096,-1.24024 1.2144,-1.39527 0.4048,-0.15503 0.32427,-0.35591 0.36173,-0.46509 0.0375,-0.10918 0.16364,0.10335 0,-0.10335 -0.16364,-0.20671 -0.50826,-0.83421 -0.49092,-1.05937 0.0173,-0.22516 0.15573,-0.45202 0.23254,-0.23254 0.0768,0.21948 0.82682,0.72347 1.24023,0.82682 0.41341,0.10335 0,-0.27561 0,-0.59428 0,-0.31867 -0.7407,-2.24793 -1.11104,-2.89388 -0.37035,-0.64596 -0.0974,-0.36765 0,-0.46509 0.0974,-0.0974 -0.17225,-1.0077 0.36174,0 0.53399,1.00769 1.97231,3.44719 2.55798,3.02308 0.58567,-0.42411 0.68039,-3.22953 0.74931,-4.54753 0.0689,-1.318 0.39619,-1.0077 0.59428,-1.26608 0.19809,-0.25839 0,-0.36174 0,-0.69763 0,-0.3359 0.40777,-1.49759 0.62012,-1.86035 0.21235,-0.36276 -0.5529,0.2596 -0.25839,-0.69763 0.29451,-0.95723 2.57416,-2.94103 4.26331,-3.35897 1.68915,-0.41794 1.83452,-0.42203 1.83452,-0.59428 0,-0.17226 0.18087,-0.10336 0,-0.10336 -0.18087,0 -0.66319,-0.0862 -0.72347,-0.12919 -0.0603,-0.043 -1.20579,0.31006 -1.60197,0.23255 -0.39619,-0.0775 -1.92926,-0.45648 -2.29961,-0.56844 -0.37035,-0.11197 -0.0311,-0.1266 0,-0.23255 0.0311,-0.10595 0.32467,-0.19299 0.23255,-0.36173 -0.0921,-0.16874 -0.24116,-0.15503 -0.72347,0 -0.48231,0.15503 -3.00752,0.59426 -4.03077,0.59428 -1.02325,2e-5 -0.72347,-0.12919 -0.85266,-0.12919 -0.12919,0 -0.16364,-0.3359 0,-0.3359 0.16365,0 0.84817,-0.0807 0.74931,-0.46509 -0.0989,-0.38442 0.93103,-0.86428 -0.49093,-0.59428 -1.42196,0.27 -4.74244,1.23795 -5.60689,1.86035 -0.86445,0.6224 -1.40388,0.93018 -1.70533,0.93018 -0.30144,0 0.28737,-0.47015 -0.49092,-0.10335 -0.77829,0.3668 -2.20486,1.16272 -2.29961,1.16272 -0.0947,0 -2.91972,1.26607 0,-0.36174 2.91973,-1.62781 10.55286,-4.74944 10.95542,-4.88342 0.40256,-0.13398 1.02154,-0.28944 1.43266,-0.38727 0.41112,-0.0978 0.99613,-0.28258 1.48706,-0.41372 0.49093,-0.13114 2.46209,-1.00678 4.13411,-1.16272 1.67202,-0.15594 4.02216,-0.55122 4.98678,-0.59428 0.96463,-0.0431 0.12058,-0.10335 0,-0.10335 -0.12057,0 -0.36173,-0.15503 -0.36173,-0.23255 0,-0.0775 -0.44786,-0.31005 0,-0.23254 z m 3.41064,6.38204 c -0.18088,0 0.0652,-0.12066 -0.72347,-0.10335 -0.78866,0.0173 -1.70532,0.43063 -1.70532,0.56844 0,0.13781 -0.0496,0.46509 0,0.82682 0.0497,0.36173 0.36173,1.39526 0.36173,2.66134 0,1.26607 -0.48526,1.78995 -0.98185,2.19625 -0.49659,0.4063 -0.44787,0.93018 -0.59428,0.93018 -0.14641,0 0,0.51677 0,0.59428 0,0.0775 -1.13688,2.40295 -1.70532,3.48816 -0.56844,1.08521 0,0.31005 0,0.3359 0,0.0259 0.14666,0.8002 0.12919,1.52445 -0.0175,0.72425 -1.10956,1.97002 -1.70532,2.89388 -0.59576,0.92386 -0.57834,1.07048 -0.25839,1.62781 0.31995,0.55733 0.62513,0.49135 1.96371,0.3359 1.33858,-0.15545 4.8232,-0.97463 5.96863,-1.62781 1.14543,-0.65318 0.45612,-1.08897 1.2144,-1.49862 0.75828,-0.40965 1.46645,-1.02304 2.42879,-1.39526 0.96234,-0.37222 1.82301,-1.20038 2.2996,-2.0929 0.47659,-0.89252 1.13688,-2.35989 1.47278,-3.25561 0.33589,-0.89572 -0.17224,-0.0861 -0.12919,-0.23255 0.043,-0.14642 0.67335,1.01289 0.12919,-0.80098 -0.54416,-1.81387 -3.32915,-5.97542 -4.49585,-6.51124 -1.1667,-0.53582 -0.62012,-0.27561 -0.62012,-0.3359 0,-0.0603 0.2067,-0.23254 0.12919,-0.23254 -0.0775,0 -0.23907,-0.39806 -1.11104,-0.36173 -0.87197,0.0363 -1.88618,0.46508 -2.06706,0.46508 z"
         style="font-size:52.9167px;font-family:'Another Danger - Demo';-inkscape-font-specification:'Another Danger - Demo';letter-spacing:39.6875px;fill:#ffffff;stroke-width:0.953195;paint-order:fill markers stroke"
         id="path1-8" />
      <path
         d="m 257.15005,108.71686 c 0.10959,-0.003 0.19059,0.13127 0.23254,0.23255 0.056,0.13527 0.01,0.29317 0,0.43925 -0.11654,1.71716 -0.58109,3.39881 -0.69763,5.11597 -0.0437,0.64447 -0.18719,1.31963 0,1.93787 0.081,0.26749 0.42959,0.42041 0.46509,0.69763 0.0602,0.4701 -0.38649,0.87622 -0.46509,1.34359 -0.0314,0.18686 0.01,0.37921 0,0.56844 -0.0949,1.83325 -0.51721,3.64271 -0.56844,5.4777 -0.0253,0.90501 0.29008,1.82207 0.12919,2.71302 -0.51287,2.84014 -2.83035,5.13103 -3.41064,7.95817 -0.0606,0.29529 -0.0222,0.60371 0,0.90434 0.0173,0.23445 0.13106,0.46419 0.10335,0.69763 -0.13029,1.09745 -0.73145,2.09368 -1.24024,3.07475 -0.22657,0.43688 -0.93417,0.76647 -0.80098,1.24024 0.0802,0.28534 0.53872,0.24807 0.80098,0.38618 0.38642,0.2035 1.19239,0.21805 1.13689,0.65124 -0.0703,0.54887 -1.1862,0.0702 -1.60197,0.43536 -0.58888,0.5172 -1.14138,1.42336 -0.90434,2.17041 0.1908,0.60131 1.71483,0.38702 1.60197,1.00769 -0.0692,0.38057 -0.8923,-0.0671 -1.13688,0.23254 -0.0272,0.0334 -0.026,0.0949 0,0.12919 0.53904,0.71019 2.03718,0.009 2.57622,0.71941 0.0729,0.096 0.0794,0.27101 0,0.36172 -0.82253,0.93946 -2.73925,-0.28649 -3.71311,0.495 -1.38769,1.11358 -1.01299,3.43437 -1.83451,5.01261 -0.57696,1.10842 -1.65667,1.92435 -2.14457,3.07475 -0.31525,0.74331 -0.50115,1.57054 -0.46509,2.37713 0.0248,0.55548 0.48714,1.04636 0.46509,1.60196 -0.0511,1.28828 -0.7621,2.48005 -1.36943,3.61735 -0.39852,0.74628 -1.07667,1.31949 -1.47278,2.06706 -0.56778,1.07156 -0.64242,2.37062 -1.26607,3.41065 -0.20709,0.34536 -0.41085,1.00409 -0.80099,0.90434 -0.48784,-0.12473 0.15998,-1.38531 -0.3359,-1.47278 -0.48465,-0.0855 -0.56831,0.80658 -0.80098,1.24024 -0.97741,1.8217 -1.55287,3.83685 -2.48047,5.68441 -0.31156,0.62056 -0.33942,1.82794 -1.03353,1.80867 -0.077,-0.002 -0.0856,-0.13173 -0.10335,-0.2067 -0.01,-0.0419 -0.005,-0.0865 0,-0.12919 0.32124,-2.524 1.72014,-4.85262 1.91203,-7.38974 0.0255,-0.3367 -0.128,-0.67093 -0.10336,-1.00769 0.046,-0.62917 0.38697,-1.20852 0.46509,-1.83452 0.01,-0.0769 0.0111,-0.15582 0,-0.23254 -0.0783,-0.54214 -0.38677,-1.03399 -0.46509,-1.57613 -0.006,-0.0426 -0.004,-0.0863 0,-0.1292 0.15133,-1.68258 1.98709,-3.69 0.90434,-4.98677 -0.0221,-0.0264 -0.0705,-0.0103 -0.10335,0 -0.12999,0.0406 -0.20591,0.19194 -0.3359,0.23255 -0.074,0.0231 -0.16093,0.0297 -0.23254,0 -0.10128,-0.042 -0.20598,-0.12619 -0.23255,-0.23255 -0.7878,-3.15342 2.0066,-6.18651 2.84221,-9.3276 0.12945,-0.48661 0.27956,-0.97241 0.3359,-1.47278 0.009,-0.077 0.0297,-0.16093 0,-0.23254 -0.16314,-0.39386 -0.49202,-0.79603 -0.90434,-0.90435 -0.68312,-0.17946 -1.34143,0.47282 -2.04122,0.56844 -0.1536,0.021 -0.32031,0.0554 -0.46509,0 -0.42148,-0.16139 -0.56905,-0.79809 -1.00769,-0.90433 -0.72686,-0.17604 -1.42866,0.47292 -2.17041,0.56844 -0.15376,0.0198 -0.31168,0.0223 -0.46509,0 -0.65798,-0.0957 -1.32149,-0.87401 -1.91203,-0.56844 -0.95308,0.49315 -0.61621,2.06027 -1.03353,3.04891 -0.71453,1.69271 -1.7664,3.2275 -2.50631,4.90927 -0.4368,0.99282 -0.90104,1.9902 -1.13688,3.04891 -0.0921,0.4133 -0.13355,0.84373 -0.10335,1.26608 0.0359,0.50225 0.35991,0.96981 0.33589,1.47277 -0.0628,1.314 -0.63222,2.57999 -1.24023,3.74655 -0.35269,0.67669 -1.02538,1.15338 -1.36943,1.8345 -0.53561,1.06034 -0.41463,2.39667 -1.03353,3.41065 -0.19357,0.31714 -0.45656,0.63578 -0.80098,0.77515 -0.0319,0.0129 -0.0774,0.0227 -0.10336,0 -0.19612,-0.17171 -0.0861,-0.51505 -0.10335,-0.77515 -0.0126,-0.18906 0.13398,-0.43446 0,-0.56844 -0.10962,-0.10962 -0.33154,-0.0787 -0.46509,0 -1.82326,1.07476 -1.93772,3.77013 -3.07475,5.55522 -0.37761,0.59283 -0.57181,1.92269 -1.24023,1.70533 -0.0328,-0.0106 -0.007,-0.0697 0,-0.10336 0.3874,-1.82551 1.79895,-3.31121 2.27376,-5.11596 0.38747,-1.47278 0.7174,-3.05025 0.43925,-4.54753 -0.0774,-0.41656 -0.5065,-0.71774 -0.56844,-1.13688 -0.16353,-1.10658 0.4247,-2.19798 0.56844,-3.3073 0.0633,-0.48873 0.46209,-1.1094 0.12919,-1.47278 -0.0291,-0.0318 -0.0881,-0.0128 -0.12919,0 -0.12998,0.0406 -0.20591,0.19194 -0.33589,0.23255 -0.0329,0.0103 -0.07,0.009 -0.10336,0 -0.0858,-0.0222 -0.19917,-0.047 -0.23254,-0.12919 -1.38415,-3.40811 2.64272,-6.92855 3.1781,-10.56784 0.0326,-0.22155 0.0442,-0.45226 0,-0.67179 -0.0571,-0.28384 -0.31533,-0.5122 -0.3359,-0.80099 -0.0753,-1.05645 1.27237,-2.12631 0.80099,-3.07475 -0.43994,-0.88518 -2.18999,-0.31478 -2.73885,-1.13688 -0.0191,-0.0286 -0.0152,-0.0724 0,-0.10335 0.16795,-0.34168 0.95054,-0.31974 0.90434,-0.69765 -0.21574,-1.76472 -3.2831,-1.37014 -4.88343,-2.14456 -0.57917,-0.28027 -1.69904,-0.26095 -1.70532,-0.90434 -8.6e-4,-0.0887 0.14543,-0.11263 0.23254,-0.12919 0.97982,-0.18623 1.97228,0.31032 2.96628,0.39216 1.20407,0.0991 2.25304,0.5245 3.62247,0.11905 0.19642,-0.0582 0.0829,-0.42722 0,-0.61456 -0.20719,-0.46837 -1.19723,-0.52495 -1.13688,-1.03353 0.0359,-0.30238 0.80858,-0.13484 0.80098,-0.43925 -0.0241,-0.96655 -1.87548,-0.63696 -2.60966,-1.26607 -0.10341,-0.0886 -0.27486,-0.20646 -0.23254,-0.3359 0.0736,-0.22523 0.43655,-0.20402 0.67179,-0.23254 1.21068,-0.14678 2.42493,0.27985 3.64319,0.33589 0.34415,0.0158 0.69498,0.0638 1.03353,0 0.77746,-0.14653 1.67964,-0.27746 2.21063,-0.86395 0.80184,-0.88564 0.6104,-2.31095 0.96747,-3.45103 0.20433,-0.65242 0.41675,-1.30355 0.6718,-1.93787 0.74617,-1.85573 1.49512,-3.72619 2.50631,-5.45187 0.85092,-1.45216 1.6188,-3.08077 2.97139,-4.08244 0.19044,-0.14103 0.43518,-0.21963 0.6718,-0.23254 0.50279,-0.0274 0.99453,0.49346 1.47278,0.3359 0.61488,-0.20257 0.64392,-1.65177 1.26607,-1.47278 0.44365,0.12764 -0.14324,1.06833 0.2067,1.36942 0.0327,0.0281 0.0914,0.0206 0.1292,0 1.10496,-0.60355 0.78398,-3.24561 2.04122,-3.1781 0.0769,0.004 0.0857,0.13174 0.10335,0.20671 0.0277,0.11735 0.0108,0.24164 0,0.36173 -0.20755,2.3017 -1.15021,4.512 -1.24024,6.82129 -0.0297,0.7613 0.19374,1.51288 0.23255,2.27377 0.01,0.18923 0.0392,0.38306 0,0.56844 -0.44457,2.10124 -1.91609,3.85844 -2.60966,5.89112 -0.4668,1.36808 -2.11889,3.25687 -1.03353,4.21163 0.70014,0.6159 1.68103,-0.92294 2.60966,-1.00769 1.38782,-0.12665 2.72074,0.64539 4.10828,0.77514 0.0343,0.003 0.0714,0.013 0.10335,0 0.44569,-0.18131 0.67254,-0.68957 1.03353,-1.00769 0.3633,-0.32015 0.86609,-0.50289 1.13688,-0.90433 0.13563,-0.20107 0.1819,-0.45637 0.20671,-0.69764 0.0424,-0.41267 -0.0861,-0.82575 -0.10336,-1.24023 -0.008,-0.18932 -0.0289,-0.38117 0,-0.56844 0.0784,-0.50881 0.53322,-0.96248 0.46509,-1.47278 -0.019,-0.14208 -0.19215,-0.2242 -0.23254,-0.36174 -0.0315,-0.10743 -0.0122,-0.22459 0,-0.33589 0.16895,-1.54339 1.97957,-3.33672 1.00769,-4.54753 -0.14017,-0.17463 -0.48938,0.12989 -0.67179,0 -0.19303,-0.13745 -0.24542,-0.43518 -0.23255,-0.6718 0.0481,-0.8848 0.79683,-1.58469 1.13688,-2.40295 0.4778,-1.14971 1.25826,-2.26898 1.26608,-3.514 0.001,-0.23697 -0.19325,-0.43811 -0.23255,-0.6718 -0.007,-0.0425 -0.005,-0.0864 0,-0.12919 0.1128,-0.9248 0.559,-1.78821 0.6718,-2.71301 0.074,-0.60701 -0.23401,-1.26956 0,-1.83452 0.47078,-1.13656 1.73704,-1.74251 2.60966,-2.60966 0.68688,-0.68257 1.17126,-1.67346 2.06706,-2.04122 0.0319,-0.0131 0.0691,-0.003 0.10335,0 0.57663,0.0563 1.14721,0.49136 1.70532,0.3359 0.49337,-0.13743 0.63345,-1.12757 1.13689,-1.03353 0.34076,0.0636 0.11843,0.93243 0.46508,0.93018 0.59321,-0.004 0.44302,-1.11044 0.77515,-1.60197 0.28674,-0.42436 0.52152,-1.12471 1.03353,-1.13689 z m -2.37712,21.70412 c -0.0548,0.0548 -0.0725,0.20499 0,0.23254 0.0969,0.0369 0.24919,-0.13793 0.20671,-0.23254 -0.0282,-0.0629 -0.15799,-0.0487 -0.20671,0 z"
         style="font-size:52.9167px;font-family:'Another Danger - Demo';-inkscape-font-specification:'Another Danger - Demo';letter-spacing:39.6875px;fill:#ffffff;stroke-width:0.953195;paint-order:fill markers stroke"
         id="path1-2" />
      <path
         d="m 327.7162,110.42218 c 0.20463,0.091 0.44348,-1.07733 0.12919,0.20671 -0.31429,1.28404 -1.03353,4.1255 -1.03353,4.34082 0,0.21532 0.39619,0.70624 0.1292,1.57613 -0.267,0.86989 -0.80099,2.30822 -0.80099,3.3073 0,0.99908 -0.6029,2.95417 -0.90434,3.28145 -0.30145,0.32729 -0.26699,-0.0861 -0.23254,0.46509 0.0345,0.55122 0.10335,1.42111 0.10335,1.80868 0,0.38758 -2.04531,6.42855 -3.07475,9.56014 -1.02944,3.13159 -1.3544,3.15649 -2.04123,4.54753 -0.68683,1.39104 -0.47943,0.46932 -1.13688,1.70532 -0.65745,1.236 -1.09384,4.49585 -1.24025,5.58106 -0.14642,1.08521 0.92157,-0.64596 0.23255,1.34359 -0.68903,1.98955 -2.44571,7.67229 -2.63551,8.65581 -0.1898,0.98352 -0.78458,0.008 -1.70534,2.94556 -0.92076,2.93765 -1.38666,6.24424 -1.57614,6.38204 -0.18948,0.1378 -0.0947,0.37896 -0.12919,0 -0.0344,-0.37896 -0.10336,-1.51584 -0.10336,-1.70533 V 163.959 c 0,-0.0986 -0.46509,-0.90377 -0.46509,0.23254 0,1.13631 -1.77218,6.95391 -2.84221,9.6635 -1.07003,2.70959 -0.63734,1.47278 -0.77514,1.47278 -0.13781,0 -0.0866,0.0426 -0.1292,0 -0.0426,-0.0426 0,0.32728 0,-0.23255 0,-0.55983 1.22302,-5.71025 1.83452,-7.72563 0.61151,-2.01538 -0.14641,-1.63642 0,-2.73885 0.14642,-1.10243 0.43925,-3.83267 0.43925,-4.18579 0,-0.35312 -0.82554,0.76866 -0.43925,-2.06706 0.3863,-2.83572 1.57614,-7.9754 1.57614,-8.73332 0,-0.75792 0.0274,-0.10178 0,-0.12919 -0.0274,-0.0274 0.01,-0.0817 -0.10336,0 -0.11338,0.0817 -0.14142,0.55756 -0.23254,0.69763 -0.0911,0.14007 -0.46509,0.12735 -0.46509,0 v -0.12919 c 0,-0.35312 0.75792,-3.45371 1.13688,-4.65089 0.37896,-1.19717 0.59428,-0.77515 -0.10335,0 -0.69763,0.77515 -3.2467,3.0324 -3.87574,3.6432 -0.62904,0.6108 -1.57989,2.10396 -2.60966,3.41064 -1.02977,1.30668 -0.98185,0.90434 -1.24024,0.90434 -0.25838,0 -0.23254,0.11196 -0.23254,0 0,-0.11196 -0.22393,-0.3359 -0.3359,-0.3359 -0.11196,0 -0.30144,-0.95602 0,0.43925 0.30145,1.39527 0.90434,5.49493 0.90434,6.1495 0,0.65456 -0.1742,0.091 -0.23254,0.10336 -0.0583,0.0124 -0.0344,0.009 -0.10336,0 -0.0689,-0.009 -0.56597,-1.80031 -0.90433,-2.94556 -0.33837,-1.14525 -0.72348,-1.83452 -0.93018,-2.50631 -0.20671,-0.6718 -0.10335,-0.62873 -0.20671,-0.10335 -0.10335,0.52537 -0.79237,1.57613 -1.03353,1.57613 -0.24115,0 -0.0793,-0.11945 -0.10335,-0.23255 -0.024,-0.1131 -0.14642,0.16364 0,-0.43925 0.14642,-0.60289 0.43925,-1.96371 0.43925,-2.04122 0,-0.0775 -0.1378,-0.24116 -0.23254,-0.12919 -0.0947,0.11196 -1.09457,2.40542 -1.80868,3.74655 -0.71411,1.34113 -0.80098,0.56844 -0.90434,0.56844 -0.10335,0 -0.0919,-0.0766 -0.12919,-0.20671 -0.0373,-0.13012 -0.24977,-0.21532 0,-0.56844 0.24977,-0.35313 0.9613,-3.09559 1.36943,-4.44418 0.40812,-1.34859 0.56844,-1.09381 0.56844,-1.36942 v -0.10336 c 0,-0.0861 -0.44786,-1.1541 -0.6718,-1.60197 -0.22393,-0.44786 -0.0603,0 -0.12919,0 -0.0689,0 -0.2067,0.22394 -0.2067,0.3359 0,0.11197 -0.0603,0 -0.23255,0 -0.17225,0 -1.1541,-3.25561 -1.47278,-4.88342 -0.31867,-1.6278 -0.12919,-0.55982 -0.12919,0 0,0.55983 -0.4523,4.07761 -1.57613,5.8136 -1.12383,1.73599 -1.56573,2.03357 -1.60197,2.71301 -0.0362,0.67944 -0.10335,0.534 -0.10335,0.80099 0,0.267 -0.11197,0.46508 0,0.80098 0.11196,0.3359 0.4912,0.47253 0.33589,1.13688 -0.1553,0.66435 -0.65438,3.20776 -1.60197,4.21164 -0.94758,1.00388 -1.25513,0.49661 -1.47277,1.57613 -0.21765,1.07952 -1.12827,2.04122 -1.36943,2.04122 -0.24116,0 0.0517,0.24116 0,-0.10335 -0.0517,-0.34451 -0.21687,-1.55112 -0.56844,-1.03353 -0.35157,0.51759 -1.72007,3.65465 -2.50631,5.4777 -0.78624,1.82305 -0.56844,1.34359 -0.67179,1.34359 -0.10336,0 -0.16556,0.067 -0.23255,0 -0.067,-0.067 -0.14642,0.43064 0,-0.3359 0.14642,-0.76653 1.2833,-4.71117 1.70532,-5.91695 0.42203,-1.20578 -0.0934,-0.54167 -0.10335,-0.6718 -0.01,-0.13013 -0.11196,0.39619 0,-0.10335 0.11197,-0.49954 0.3359,-1.56752 0.3359,-1.60197 0,-0.0344 0.18948,-0.10336 0,-0.3359 -0.18948,-0.23254 -0.56844,-0.92156 -0.56844,-1.03353 0,-0.11197 0.50288,-1.38142 0.56844,-1.80867 0.0656,-0.42725 -0.0131,-0.35702 0,-0.69763 0.0131,-0.34061 0.35117,-1.19234 0.10335,-1.34359 -0.24782,-0.15125 -0.21878,0.17355 -0.3359,0.2067 -0.11711,0.0332 -0.28413,0.0518 -0.33589,0 -0.0518,-0.0518 0,0.267 0,-0.10335 0,-0.37035 0.8252,-3.18934 1.47278,-5.58106 0.64757,-2.39172 0.8274,-2.79231 0.69763,-3.28145 -0.12977,-0.48914 -0.98262,0.74397 -0.56844,-1.03353 0.41417,-1.7775 1.38664,-5.88244 1.57613,-7.26054 0.18949,-1.3781 0.3462,-1.70181 0.23254,-1.93787 -0.11365,-0.23606 -0.33589,-0.95602 -0.33589,-1.13688 v -0.1292 c 0,-0.3359 0.4196,-1.92823 0.56844,-3.04891 0.14884,-1.12068 -0.12919,-1.86897 -0.12919,-2.17041 v -0.67179 c 0,-0.22394 0.0632,-0.39839 1.13688,-1.60197 1.0737,-1.20358 2.39004,-3.46318 2.6355,-4.08244 0.24546,-0.61926 0.21655,-0.58169 0.77515,-0.46509 0.55859,0.1166 0.85246,0.81916 1.13688,0.23254 0.28442,-0.58662 1.30913,-2.01538 1.60197,-2.17041 0.29283,-0.15503 0.36173,1.07659 0.46509,0.46509 0.10335,-0.61151 0.37174,-1.74451 0.43925,-1.83451 0.0675,-0.09 0.16364,-0.20671 0.23254,-0.20671 0.0689,0 0.20483,-0.10826 0.3359,0 0.13107,0.10826 0.17225,0.0603 0.12919,0.67179 -0.0431,0.6115 -0.12919,1.30052 -0.12919,2.04122 0,0.7407 1.06488,5.17269 1.60197,7.28638 0.53708,2.11369 -0.15462,1.43457 -0.23255,2.14458 -0.0779,0.71001 0.91295,2.60965 1.36943,3.41064 0.45648,0.80098 0.1378,0.69764 0,0.69764 -0.1378,0 -1.14078,-0.64281 -0.56844,0.67179 0.57234,1.3146 1.80868,4.53891 1.80868,5.24516 v 0.3359 c 0,0.1378 -0.49279,0.80734 -0.43925,1.36943 0.0535,0.56209 1.16068,-1.9602 2.27376,-3.87574 1.11308,-1.91554 4.01965,-4.32408 5.32268,-5.78776 1.30303,-1.46368 1.91294,-1.71612 3.87575,-4.10828 1.96281,-2.39216 2.23639,-3.00925 2.37107,-3.20345 0.13468,-0.19419 0.15399,-0.15606 0.2067,-0.36173 0.0527,-0.20567 0.0488,-0.69635 0.16111,-1.21489 0.11234,-0.51852 0.33589,-1.1455 0.33589,-1.70533 0,-0.55983 0.10333,-1.99451 0.10336,-2.71301 3e-5,-0.7185 -0.18261,-1.0501 -0.10336,-1.47278 0.0792,-0.42268 0.37035,-0.55122 0.43925,-0.56844 0.0689,-0.0172 -0.0912,-0.43393 -0.10335,-0.56844 -0.0121,-0.13451 0,0.38756 0,-0.23255 0,-0.62011 0.34553,-1.77906 1.60198,-2.40295 1.25645,-0.62389 1.99193,-1.77552 2.14458,-2.37712 0.15265,-0.6016 0.99047,-0.67179 1.26608,-0.67179 0.27561,0 -0.16365,-0.22393 0.10335,0 0.26699,0.22393 1.15686,1.10211 1.70532,0.77514 0.54846,-0.32697 0.90434,-0.90434 1.13689,-0.90434 0.23254,0 -0.24978,0.80099 0.10335,0.80099 0.35312,0 1.24358,-1.23211 1.49862,-2.04122 0.25504,-0.80911 0.57051,-0.42685 0.77514,-0.3359 z"
         style="font-size:52.9167px;font-family:'Another Danger - Demo';-inkscape-font-specification:'Another Danger - Demo';letter-spacing:39.6875px;fill:#ffffff;stroke-width:0.953195;paint-order:fill markers stroke"
         id="path2" />
      <path
         d="m 278.96184,108.25182 c 0.0759,-0.023 -0.009,0 0.10335,0 0.11197,0 0.38082,3.06413 0.41341,3.61735 0.0326,0.55322 0.0222,0.84458 2e-5,1.24019 0,2.53774 0.57492,-1.49741 0.62711,-0.22388 0.0522,1.27352 -0.59273,2.1785 -0.4204,3.22111 0.17233,1.04261 0.51676,4.38389 0.51676,5.06429 v 0.31006 c 0,0.68041 -0.61738,3.21307 -1.03353,4.44418 -0.41615,1.23111 -0.51786,2.47045 -0.41341,4.23747 0.10445,1.76702 0.51677,2.68717 0.51677,2.89388 v 0.20671 c 0,0.25838 -0.75793,1.70532 -1.13689,2.17041 -0.37896,0.46509 -0.0982,0.0452 -0.10335,0.62012 -0.005,0.57492 0.35735,2.02959 0.41341,2.79053 0.0561,0.76094 0,1.59336 0,1.757 0,0.16364 -0.0689,0.85265 -0.10335,1.03352 -0.0345,0.18086 0.34451,1.17133 0.20671,1.65365 -0.13781,0.48231 -1.43708,3.58713 -0.72347,5.58106 0.71361,1.99393 2.06705,1.42971 2.06705,1.757 0,0.32728 -0.41341,0.72347 0,0.72347 0.41342,0 1.24024,0.48231 1.24024,0.72347 0,0.2134 -0.41341,0.12112 -0.41341,0.41341 0,0.18948 0.89573,0.31006 1.34359,0.31006 0.44787,0 0.68849,-0.0239 0.93017,0 0.24168,0.0239 0.4174,-0.0179 0.51677,0.10335 0.0994,0.12121 0.53399,0.34452 0,0.41342 -0.53399,0.0689 -1.25763,0.46917 -2.99724,0.93017 -1.73961,0.461 -3.8778,0.76384 -4.03076,0.82682 -0.15296,0.063 -0.19809,0.34451 -0.20671,0.51677 -0.009,0.17225 -0.17225,0.86989 0,1.34359 0.17226,0.4737 0.51677,1.70532 0.51677,2.06706 0,0.36173 -0.18056,3.47437 -1.03353,5.89111 -0.85297,2.41674 -1.36924,2.58928 -1.44694,3.92742 -0.0777,1.33814 -0.45647,1.65364 -0.72347,1.65364 -0.26699,0 -0.31006,-0.89573 -0.31006,-1.34359 0,-0.44787 -0.0344,-0.22394 -0.20671,0 -0.17225,0.22393 -0.40818,1.89265 -0.93018,3.82406 -0.522,1.93141 -1.41248,3.89296 -1.55029,4.54753 -0.1378,0.65457 -0.24916,0.0609 -0.31006,0 -0.0609,-0.0609 0,0.45647 0,-0.20671 0,-0.66318 0.75296,-4.56159 1.03353,-6.20117 0.28057,-1.63958 -0.27577,-0.96238 -0.2067,-1.86035 0.0691,-0.89797 0.2067,-1.67949 0.2067,-1.96371 0,-0.28422 -0.61455,-0.61686 -0.72347,-1.86035 -0.10892,-1.24349 0.41341,-2.30822 0.41341,-2.99724 0,-0.68902 -0.1378,-1.87757 -0.2067,-2.27376 -0.0689,-0.39619 -0.49264,0.39801 -0.51677,0.41341 -0.0241,0.0154 -0.0779,0.0147 -0.10335,0 -0.0255,-0.0147 -0.10335,-0.22393 -0.10335,-0.51676 0,-0.29284 0.53575,-3.88072 0.51676,-5.68441 -0.019,-1.80369 0.19032,-0.24128 -0.82682,-0.10336 -1.01714,0.13792 -3.06613,0.41341 -3.20394,0.41341 -0.1378,0 0.12058,0.10335 0,-0.10335 -0.12058,-0.20671 -0.9474,-0.62012 -1.24024,-0.62012 -0.29283,0 0.58567,-0.13781 -0.10335,0 -0.68902,0.1378 -1.79804,0.43273 -2.06706,1.03353 -0.26902,0.6008 -0.23244,1.60738 -1.13688,2.68718 -0.90444,1.0798 -2.37666,2.19268 -2.48047,2.99723 -0.10381,0.80455 -0.60951,1.3798 -1.03353,1.65365 -0.42402,0.27385 -0.20671,-0.13781 -0.20671,-0.20671 v -0.62011 c 0,-0.18948 0.0994,-0.39556 0,-0.51677 -0.0994,-0.12121 -0.0948,-0.22694 -0.31006,0 -0.21527,0.22694 -2.39426,3.9068 -3.30729,5.16765 -0.91303,1.26085 -0.91295,1.51584 -1.03353,1.55029 -0.12058,0.0344 -0.0221,0.0666 -0.10335,0 -0.0812,-0.0666 -0.20671,-0.36173 -0.10336,-0.51676 0.10336,-0.15503 0.19511,-1.02341 1.03353,-2.37712 0.83842,-1.35371 1.50859,-3.10762 1.757,-4.34082 0.24841,-1.2332 0.84526,-1.30358 0.72347,-1.86035 -0.12179,-0.55677 -0.71424,-0.31403 -0.41341,-1.13689 0.30083,-0.82286 1.08581,-2.66642 0.93018,-2.89388 -0.15563,-0.22746 -1.80515,-0.72347 -2.27377,-0.72347 -0.46862,0 -0.87552,0.15481 -1.31312,0.33101 -0.4376,0.1762 -1.00118,0.49581 -1.33555,0.63058 -0.33438,0.13476 -0.93399,0.35904 -1.48544,0.382 -0.55145,0.0229 -2.00677,0 -2.06706,0 -0.0603,0 -1.16272,-0.55122 -1.65365,-0.82682 -0.49092,-0.27561 -2.18287,0.32871 -2.58382,0 -0.40095,-0.32871 -0.20168,-0.48414 -0.10335,-0.51677 0.0983,-0.0326 0.64596,-0.41342 0.72347,-0.62012 0.0775,-0.20671 -0.88713,-0.10335 -0.93018,-0.10335 -0.043,0 -0.70608,0.0689 -1.03353,0.10335 -0.32745,0.0344 -0.19895,-0.13826 -0.82682,-0.10335 -0.62787,0.0349 -1.95509,0.20671 -2.37711,0.20671 -0.42203,0 -1.52557,0.23142 -1.75699,0 -0.23143,-0.23142 0,-0.009 0,-0.20671 0,-0.1981 2.75285,-0.66984 5.58104,-1.13688 2.82819,-0.46704 2.95382,-1.06578 2.99723,-1.34359 0.0434,-0.27781 2.9376,-0.60153 3.10059,-0.62012 0.16299,-0.0186 0.29675,-0.17553 0.31006,-0.31006 0.0133,-0.13453 -0.17372,-0.20116 -0.20671,-0.31006 -0.033,-0.1089 -0.18408,-0.25747 0,-0.31005 0.18408,-0.0526 7.23799,-0.57363 8.26824,-0.82683 1.03025,-0.2532 0.84923,-1.2746 1.44694,-2.79053 0.59771,-1.51593 1.13688,-2.30821 1.13688,-2.58382 0,-0.27561 -0.51746,-0.0206 -0.2067,-1.34359 0.31076,-1.32294 2.99675,-6.95811 4.13411,-9.30176 1.13736,-2.34365 0.46379,-2.36135 0.82683,-3.514 0.36304,-1.15265 0.58541,-1.40917 1.03353,-2.37712 0.44812,-0.96795 1.04367,-2.73143 1.44694,-4.13411 0.40327,-1.40268 1.58701,-1.28624 2.17041,-1.86036 0.5834,-0.57412 0.83125,-0.48108 1.34359,-1.13688 0.51234,-0.6558 0.58906,-1.05387 1.44694,-2.99723 0.85788,-1.94336 1.40778,-3.89355 1.9637,-3.82406 0.55592,0.0695 0.63494,0.29353 0.93018,0.2067 0.29524,-0.0868 0.72347,-1.53307 0.72347,-2.17041 0,-0.63735 0.31006,-0.24977 0.41341,-0.10335 0.10336,0.14641 0.26735,1.16522 0.51677,1.65365 0.24942,0.48843 0.68902,-2.34267 0.82682,-3.514 0.13781,-1.17133 0.23413,-0.18372 0.31006,-0.20671 z m -7.95818,27.28517 c -0.0401,0.1034 -1.53947,5.81303 -1.9637,6.51124 -0.42423,0.69821 -1.86398,3.69772 -2.06706,4.13411 -0.20308,0.43639 -0.75206,1.36658 -0.41341,1.34359 0.33865,-0.023 3.45361,-0.52042 3.81009,-0.5886 0.70618,-0.23789 0.4274,-0.501 0.4274,-2.50142 0,-2.00042 0.10333,-4.21359 0.31004,-5.48827 0.20671,-1.27469 0,-2.89383 0,-3.20394 0,-0.31011 -0.0632,-0.31011 -0.10336,-0.20671 z"
         style="font-size:52.9167px;font-family:'Another Danger - Demo';-inkscape-font-specification:'Another Danger - Demo';letter-spacing:39.6875px;fill:url(#linearGradient3);stroke:none;stroke-width:0.953195;stroke-opacity:1;paint-order:fill markers stroke"
         id="path3" />
    </g>
    <text
       xml:space="preserve"
       style="font-size:27.7812px;font-family:'Another Danger - Demo';-inkscape-font-specification:'Another Danger - Demo';letter-spacing:6.61458px;fill:#ffffff;fill-opacity:1;stroke-width:1;paint-order:fill markers stroke"
       x="145.98384"
       y="109.34961"
       id="text5-6"><tspan
         id="tspan5-4"
         style="font-style:normal;font-variant:normal;font-weight:normal;font-stretch:normal;font-size:27.7812px;font-family:Versa;-inkscape-font-specification:Versa;text-align:center;text-anchor:middle;fill:#ffffff;fill-opacity:1;stroke-width:1"
         x="149.29114"
         y="109.34961">TECHNOLOGIES</tspan></text>
  </g>
</svg>
