  <svg
    xmlns="http://www.w3.org/2000/svg" viewBox="0 0 94 128"
  >
    <path d="M46.98 126.64c-.29-.68-6.17-6.43-10.38-11.66-24.94-33.12-52.76-63.9-20.28-101.3C30.7-.22 48.43-1 66.66 5.48c51.33 29.7 14.17 78.15-10.23 110l-9.45 11.16zm15.44-50.77C96.65 51.4 70.19 4.24 32.57 19.91c-10.98 5.86-16.44 16.05-16.63 28.07-.52 11.7 5.69 21.47 15.53 27.46 7.06 3.84 10.16 4.54 18.15 4.06 5.17-.3 8.16-1.15 12.8-3.63zM37.16 87.56a44.99 43.92 0 1 1 1.13.22"></path>
    <path fill="#fff" d="M42.02 69.42a22.1 22.59 0 1 1 .55.12"></path>
  </svg>